<svg xmlns="http://www.w3.org/2000/svg" xmlns:xlink="http://www.w3.org/1999/xlink" width="168.079" height="54.267" viewBox="0 0 168.079 54.267">
  <defs>
    <clipPath id="clip-path">
      <rect id="Rectangle_8" data-name="Rectangle 8" width="168.079" height="54.267" transform="translate(0 0.002)" fill="#fdfdfd"/>
    </clipPath>
  </defs>
  <g id="Group_3" data-name="Group 3" transform="translate(0 -0.002)">
    <g id="Group_2" data-name="Group 2" clip-path="url(#clip-path)">
      <path id="Path_7" data-name="Path 7" d="M44.295,15.033q-.141,2.277-2.84,4.57A16.49,16.49,0,0,1,43.3,27.558q-.054.875-.479.849-.34-.021-.269-1.176A14.708,14.708,0,0,0,41,20a35.24,35.24,0,0,1-11.573,5.841,35.239,35.239,0,0,1-12.7,1.977,10.963,10.963,0,0,1-1.327-.156q-5.013,7.528-5.458,14.775a11.567,11.567,0,0,0,2,7.96,8.475,8.475,0,0,0,6.577,3.287q8.072.5,14.974-8.672,4.177-5.54,4.5-10.722a6.631,6.631,0,0,0-1.061-4.423A4.361,4.361,0,0,0,33.5,28.038q-3.532-.218-7.874,4.136T21.04,40.52q-.023.349.147.36a.4.4,0,0,0,.233-.126A2.057,2.057,0,0,1,22.875,40q1.431.088,1.313,2.014-.161,2.591-2.2,2.466-1.868-.115-1.7-2.916.309-5.005,4.718-9.672t8.629-4.406q5.438.334,4.982,7.722-.471,7.634-6.762,13.553T18.372,54.237A10.509,10.509,0,0,1,10.2,49.552a15.731,15.731,0,0,1-2.778-10.5,25.784,25.784,0,0,1,4.127-12.014Q-.541,23.481.025,14.309A11.318,11.318,0,0,1,5.147,5.452,17.543,17.543,0,0,1,16.729,2.475q9.486.585,18.69,8.988a14.017,14.017,0,0,1,3.452-.209q5.634.346,5.424,3.778m-9.678-3.474a30.992,30.992,0,0,0-17.942-7.29A16.6,16.6,0,0,0,5.968,7.119q-4.7,3.225-4.993,7.916Q.461,23.4,11.806,26.558q7.895-11.846,22.811-15m6.19,7.937a24.214,24.214,0,0,0-5.437-7.258,31.152,31.152,0,0,0-10.714,5.507,38.888,38.888,0,0,0-8.88,9.416,37.888,37.888,0,0,0,13.262-1.872,34.873,34.873,0,0,0,11.769-5.794m3.034-4.487q.177-2.871-4.354-3.15a14.213,14.213,0,0,0-3.4.282,25.581,25.581,0,0,1,5.166,7.031q2.474-2.312,2.588-4.165" fill="#fdfdfd"/>
      <path id="Path_8" data-name="Path 8" d="M51.333,3.859A1.016,1.016,0,0,0,50.344,4.9h0a.994.994,0,0,0,.139.478l-5.051,3-.207-5.961a1.217,1.217,0,1,0-1.112-.426L39.931,6.75,37.754,2.259a1.157,1.157,0,1,0-.8-.008l.2,7.472s6.912-.672,9.009,2.876l4.9-6.759a1,1,0,0,0,.325.049,1.016,1.016,0,1,0-.018-2.032h-.035" fill="#fdfdfd"/>
      <path id="Path_9" data-name="Path 9" d="M48.493,36.8a3.311,3.311,0,0,0-1.131-.217,1.927,1.927,0,0,0-1.964,1.8v7.582H43.811V35.129h1.111l.3,1.321H45.3a2.392,2.392,0,0,1,2.241-1.538,4.344,4.344,0,0,1,1.289.217Z" fill="#fdfdfd"/>
      <path id="Path_10" data-name="Path 10" d="M54.345,34.869c2.975,0,4.344,2.253,4.344,5.675,0,3.639-1.567,5.676-4.344,5.676C51.37,46.22,50,43.967,50,40.544c0-3.639,1.567-5.675,4.344-5.675m0,9.835c1.785,0,2.7-1.343,2.7-4.159,0-2.231-.734-4.159-2.7-4.159-1.765,0-2.7,1.343-2.7,4.159,0,2.21.734,4.159,2.7,4.159" fill="#fdfdfd"/>
      <path id="Path_11" data-name="Path 11" d="M67.4,35.129l2.281,6.326.5,2.079h.04l.377-2.123,1.765-6.282h1.507L70.536,46.2h-.773l-2.6-7.149-.377-1.777h-.06l-.4,1.8-2.5,7.125h-.773L59.6,35.128h1.724l1.964,6.3.337,2.1h.02l.476-2.144,2.122-6.261Z" fill="#fdfdfd"/>
      <path id="Path_12" data-name="Path 12" d="M81.919,45.956v-6.17c0-2.253-.5-3.4-2.082-3.4a2.785,2.785,0,0,0-2.7,2.167v7.4H75.55V35.129h1.111l.3,1.321h.079a3.776,3.776,0,0,1,3.193-1.581c2.162,0,3.273.975,3.273,4.549v6.538Z" fill="#fdfdfd"/>
      <path id="Path_13" data-name="Path 13" d="M85.093,35.129H86.64V32.984l1.587-.5v2.643h2.7v1.514h-2.7v6c0,1.5.317,2.058,1.13,2.058a3.6,3.6,0,0,0,1.666-.412l.357,1.3a5.5,5.5,0,0,1-2.539.628c-1.607,0-2.2-.932-2.2-3.249V36.641H85.094Z" fill="#fdfdfd"/>
      <path id="Path_14" data-name="Path 14" d="M100.149,45.094a5.3,5.3,0,0,1-3.412,1.126c-3.035,0-4.383-2.232-4.383-5.676,0-3.661,1.587-5.675,4.363-5.675,1.805,0,3.768.65,3.768,4.267a11.785,11.785,0,0,1-.119,1.581H94c.02,2.513.853,3.986,3.193,3.986a3.743,3.743,0,0,0,2.36-.866Zm-6.133-5.738h4.919c0-2.188-.814-2.968-2.2-2.968-1.547,0-2.539.824-2.717,2.968" fill="#fdfdfd"/>
      <path id="Path_15" data-name="Path 15" d="M109.532,45.245a5.072,5.072,0,0,1-3.114.975c-3.055,0-4.205-2.253-4.205-5.676,0-3.639,1.547-5.675,4.3-5.675a5.342,5.342,0,0,1,2.817.628l-.456,1.5a4.272,4.272,0,0,0-2.2-.607c-1.884,0-2.817,1.365-2.817,4.159,0,2.188.754,4.159,2.956,4.159a3.4,3.4,0,0,0,2.2-.78Z" fill="#fdfdfd"/>
      <path id="Path_16" data-name="Path 16" d="M118.082,45.959V39.785c0-2.253-.4-3.4-2.123-3.4a2.834,2.834,0,0,0-2.658,2.361v7.213h-1.587V30.8H113.3v5.546h.079a3.614,3.614,0,0,1,3.035-1.473c2.241,0,3.253.975,3.253,4.549v6.542Z" fill="#fdfdfd"/>
      <path id="Path_17" data-name="Path 17" d="M136.907,45.331a5.447,5.447,0,0,1-3.451.889c-3.312,0-6.01-2.4-6.01-7.842,0-5.654,3.094-7.842,6.03-7.842a8.05,8.05,0,0,1,3.233.519l-.4,1.581a6.042,6.042,0,0,0-2.718-.5c-2.181,0-4.4,1.6-4.4,6.239,0,4.159,2.023,6.239,4.641,6.239a4.78,4.78,0,0,0,2.678-.693Z" fill="#fdfdfd"/>
      <path id="Path_18" data-name="Path 18" d="M142.284,34.869c2.975,0,4.344,2.253,4.344,5.675,0,3.639-1.567,5.676-4.344,5.676-2.975,0-4.344-2.253-4.344-5.676,0-3.639,1.567-5.675,4.344-5.675m0,9.835c1.785,0,2.7-1.343,2.7-4.159,0-2.231-.733-4.159-2.7-4.159-1.765,0-2.7,1.343-2.7,4.159,0,2.21.734,4.159,2.7,4.159" fill="#fdfdfd"/>
      <path id="Path_19" data-name="Path 19" d="M153.809,36.8a3.311,3.311,0,0,0-1.131-.217,1.927,1.927,0,0,0-1.964,1.8v7.582h-1.587V35.129h1.111l.3,1.321h.08a2.391,2.391,0,0,1,2.241-1.538,4.344,4.344,0,0,1,1.289.217Z" fill="#fdfdfd"/>
      <path id="Path_20" data-name="Path 20" d="M155.87,35.129h1.091l.3,1.3h.079a3.139,3.139,0,0,1,2.836-1.56c2.638,0,3.927,1.6,3.927,5.459,0,3.639-1.785,5.892-4.562,5.892a4.218,4.218,0,0,1-2.083-.433v4.506H155.87Zm1.587,3.574V44.1a2.9,2.9,0,0,0,2.023.607c1.8,0,2.975-1.538,2.975-4.4,0-2.383-.694-3.921-2.578-3.921-1.349,0-2.1.758-2.42,2.318" fill="#fdfdfd"/>
      <path id="Path_21" data-name="Path 21" d="M0,0H1.563V1.563H0Z" transform="matrix(0.672, -0.74, 0.74, 0.672, 165.639, 46.013)" fill="#fdfdfd" stroke="#fff" stroke-width="0.75"/>
    </g>
  </g>
</svg>
