<svg xmlns="http://www.w3.org/2000/svg" width="1216.5" height="430" viewBox="0 0 1216.5 430">
  <g id="Group_1" data-name="Group 1" transform="translate(-414.25 -3973)">
    <path id="Path_1" data-name="Path 1" d="M16.08.64A15.205,15.205,0,0,1,9.56-.64,12.128,12.128,0,0,1,5.14-4.06,14.334,14.334,0,0,1,2.64-8.8a17.6,17.6,0,0,1-.8-5.2,16.4,16.4,0,0,1,.84-5.1,14.814,14.814,0,0,1,2.58-4.74,13.056,13.056,0,0,1,4.36-3.48,13.483,13.483,0,0,1,6.14-1.32,14.251,14.251,0,0,1,6.36,1.32,12.789,12.789,0,0,1,4.42,3.5,15.432,15.432,0,0,1,2.6,4.74A15.878,15.878,0,0,1,30-14a16.288,16.288,0,0,1-.84,5.06,15.05,15.05,0,0,1-2.58,4.76,13,13,0,0,1-4.34,3.5A13.452,13.452,0,0,1,16.08.64ZM16.16-1a8.5,8.5,0,0,0,4.32-1.06A9.3,9.3,0,0,0,23.54-4.9a13.464,13.464,0,0,0,1.84-3.96A15.942,15.942,0,0,0,26-13.24a18.248,18.248,0,0,0-.68-4.92,15.607,15.607,0,0,0-2-4.44,10.72,10.72,0,0,0-3.26-3.22,8.127,8.127,0,0,0-4.42-1.22,8.488,8.488,0,0,0-4.34,1.08A9.432,9.432,0,0,0,8.22-23.1a13.464,13.464,0,0,0-1.84,3.96,16.083,16.083,0,0,0-.62,4.42,18.385,18.385,0,0,0,.62,4.6,16.254,16.254,0,0,0,1.9,4.48,10.556,10.556,0,0,0,3.24,3.36A8.3,8.3,0,0,0,16.16-1ZM33.52,0V-1.2a2.059,2.059,0,0,0,1.72-.62,3.134,3.134,0,0,0,.56-1.72q.08-1.1.08-2.54l.04-9.12q0-.64.02-1.28a9.26,9.26,0,0,1,.14-1.32l-1.42.08-1.42.08v-1.68a16.4,16.4,0,0,0,2.66-.16,4.618,4.618,0,0,0,1.34-.4,3.132,3.132,0,0,0,.72-.52h1.16q.04.28.06.64t.06.8q.04.44.04,1a12,12,0,0,1,1.94-1.36,11.119,11.119,0,0,1,2.24-.96,7.987,7.987,0,0,1,2.34-.36,5.88,5.88,0,0,1,5.08,2.18q1.6,2.18,1.6,6.78v7.44q0,.8-.02,1.42a9.2,9.2,0,0,1-.14,1.3q.64-.04,1.26-.06t1.26-.06V0H46.68V-1.2a2.059,2.059,0,0,0,1.72-.62,3.134,3.134,0,0,0,.56-1.72q.08-1.1.08-2.54v-5.6a10.158,10.158,0,0,0-1.14-5.2,3.7,3.7,0,0,0-3.46-1.72,6.426,6.426,0,0,0-2.82.76A7.306,7.306,0,0,0,39.32-16a5.847,5.847,0,0,1,.04.72v.84l-.04,10.2q0,.8-.02,1.42a9.2,9.2,0,0,1-.14,1.3q.64-.04,1.26-.06t1.26-.06V0ZM57.4-1.2a2.059,2.059,0,0,0,1.72-.62,3.134,3.134,0,0,0,.56-1.72q.08-1.1.08-2.54V-25q0-.64.02-1.22t.1-1.38l-1.42.08-1.42.08v-1.68a18.022,18.022,0,0,0,2.74-.16,5.71,5.71,0,0,0,1.48-.4,2.828,2.828,0,0,0,.78-.52H63.2l.04,25.96q0,.8-.04,1.42a11.9,11.9,0,0,1-.16,1.3q.64-.04,1.26-.06t1.26-.06V0H57.4Zm11.28,0a2.059,2.059,0,0,0,1.72-.62,3.134,3.134,0,0,0,.56-1.72q.08-1.1.08-2.54V-15.2q0-.64.04-1.22t.12-1.38l-1.42.08-1.42.08v-1.68a17.609,17.609,0,0,0,2.72-.16,5.68,5.68,0,0,0,1.46-.4,2.828,2.828,0,0,0,.78-.52h1.16V-4.24q0,.8-.02,1.42a9.2,9.2,0,0,1-.14,1.3q.64-.04,1.26-.06t1.26-.06V0H68.68Zm3.84-23.16a1.977,1.977,0,0,1-1.48-.68,2.358,2.358,0,0,1-.64-1.68,2.387,2.387,0,0,1,.66-1.7,2.014,2.014,0,0,1,1.5-.7,1.974,1.974,0,0,1,1.54.7,2.474,2.474,0,0,1,.62,1.7,2.318,2.318,0,0,1-.66,1.68A2.081,2.081,0,0,1,72.52-24.36ZM79.92,0V-1.2a2.059,2.059,0,0,0,1.72-.62,3.134,3.134,0,0,0,.56-1.72q.08-1.1.08-2.54l.04-9.12q0-.64.02-1.28a9.26,9.26,0,0,1,.14-1.32l-1.42.08-1.42.08v-1.68a16.4,16.4,0,0,0,2.66-.16,4.618,4.618,0,0,0,1.34-.4,3.132,3.132,0,0,0,.72-.52h1.16q.04.28.06.64t.06.8q.04.44.04,1a12,12,0,0,1,1.94-1.36,11.12,11.12,0,0,1,2.24-.96,7.987,7.987,0,0,1,2.34-.36,5.88,5.88,0,0,1,5.08,2.18q1.6,2.18,1.6,6.78v7.44q0,.8-.02,1.42a9.2,9.2,0,0,1-.14,1.3q.64-.04,1.26-.06t1.26-.06V0H93.08V-1.2a2.059,2.059,0,0,0,1.72-.62,3.134,3.134,0,0,0,.56-1.72q.08-1.1.08-2.54v-5.6a10.158,10.158,0,0,0-1.14-5.2,3.7,3.7,0,0,0-3.46-1.72,6.426,6.426,0,0,0-2.82.76A7.306,7.306,0,0,0,85.72-16a5.848,5.848,0,0,1,.04.72v.84l-.04,10.2q0,.8-.02,1.42a9.2,9.2,0,0,1-.14,1.3q.64-.04,1.26-.06t1.26-.06V0Zm33.96.64a9.671,9.671,0,0,1-4.98-1.3,9.224,9.224,0,0,1-3.5-3.68,11.7,11.7,0,0,1-1.28-5.62,11.256,11.256,0,0,1,1.26-5.24,10.287,10.287,0,0,1,3.54-3.94,9.386,9.386,0,0,1,5.28-1.5,8.981,8.981,0,0,1,3.14.54,7.216,7.216,0,0,1,2.58,1.64,7.671,7.671,0,0,1,1.76,2.76,10.818,10.818,0,0,1,.64,3.9l-14.08.24a19.432,19.432,0,0,0,.66,5.34,7.1,7.1,0,0,0,2.14,3.56,5.657,5.657,0,0,0,3.8,1.26,7.9,7.9,0,0,0,2.54-.44,10,10,0,0,0,2.42-1.2,7.3,7.3,0,0,0,1.8-1.68l.96.8a8.926,8.926,0,0,1-2.6,2.68A10.955,10.955,0,0,1,116.84.2,11.218,11.218,0,0,1,113.88.64Zm-5.52-13.88h10.2a9.24,9.24,0,0,0-.42-2.78,4.819,4.819,0,0,0-1.38-2.2,3.634,3.634,0,0,0-2.52-.86,5.569,5.569,0,0,0-3.86,1.38A7.311,7.311,0,0,0,108.36-13.24Zm50.6-5.84a8.986,8.986,0,0,0-2.62-5.84,8,8,0,0,0-5.7-2.08,9.019,9.019,0,0,0-3.98.9,9.743,9.743,0,0,0-3.26,2.58,12.509,12.509,0,0,0-2.2,4.04,16.517,16.517,0,0,0-.8,5.32,14.658,14.658,0,0,0,1.44,6.64,11.21,11.21,0,0,0,3.88,4.48,9.64,9.64,0,0,0,5.4,1.6,11.962,11.962,0,0,0,5.12-1.18,10.391,10.391,0,0,0,4.12-3.42l1.04.84a14.077,14.077,0,0,1-3.72,3.64A12.765,12.765,0,0,1,153.7.18a16.107,16.107,0,0,1-3.62.46,13.723,13.723,0,0,1-5.5-1.08,12.829,12.829,0,0,1-4.32-3.02,13.578,13.578,0,0,1-2.8-4.52,15.585,15.585,0,0,1-.98-5.58,17.956,17.956,0,0,1,.86-5.52,15.113,15.113,0,0,1,2.58-4.84,12.434,12.434,0,0,1,4.34-3.44,13.74,13.74,0,0,1,6.1-1.28,14.681,14.681,0,0,1,4.24.6,14.1,14.1,0,0,1,3.84,1.84l-.2-2.16h2.16v9.28ZM176.52,0q-.12-.68-.16-1.2t-.12-1.08A11.118,11.118,0,0,1,173.3-.14a7.448,7.448,0,0,1-3.34.78,6.434,6.434,0,0,1-4.52-1.38,4.443,4.443,0,0,1-1.48-3.38A4.749,4.749,0,0,1,165.1-7.3a8.687,8.687,0,0,1,2.96-2.2,16.805,16.805,0,0,1,3.96-1.28,19.455,19.455,0,0,1,4.14-.38v-2.48a13.884,13.884,0,0,0-.24-2.64,3.836,3.836,0,0,0-1.04-2.04,3.629,3.629,0,0,0-2.56-.84,5.91,5.91,0,0,0-2.38.44,3.21,3.21,0,0,0-1.78,1.64,1.534,1.534,0,0,1,.42.74,3.382,3.382,0,0,1,.1.78,2.1,2.1,0,0,1-.4,1.1,1.461,1.461,0,0,1-1.4.58,1.508,1.508,0,0,1-1.28-.58,2.218,2.218,0,0,1-.44-1.38,3.463,3.463,0,0,1,1.02-2.44A7.046,7.046,0,0,1,169-20a12.132,12.132,0,0,1,4.08-.64,6.345,6.345,0,0,1,4.96,1.78q1.6,1.78,1.56,5.62v2.98q0,1.5-.02,3t-.02,3.02q0,.64-.04,1.28t-.12,1.44l1.42-.08,1.42-.08V0Zm-.36-9.8a17.179,17.179,0,0,0-2.86.34,11.756,11.756,0,0,0-2.76.9,5.671,5.671,0,0,0-2.04,1.58,3.532,3.532,0,0,0-.74,2.38,2.925,2.925,0,0,0,.98,2.22,3.263,3.263,0,0,0,2.14.74,6.235,6.235,0,0,0,2.86-.62A10.666,10.666,0,0,0,176.16-4q-.04-.44-.04-.96V-6.04q0-.2.02-1.28T176.16-9.8ZM193.2.64A10.856,10.856,0,0,1,189.64.1a10.927,10.927,0,0,1-2.56-1.22l.16,1.4h-1.68l-.24-6.88h1.24a5.84,5.84,0,0,0,.92,2.94,5.913,5.913,0,0,0,2.16,2.02,5.838,5.838,0,0,0,2.84.72,6.3,6.3,0,0,0,2.04-.34A4.171,4.171,0,0,0,196.2-2.3a2.45,2.45,0,0,0,.68-1.78,2.691,2.691,0,0,0-.66-1.86,6,6,0,0,0-1.74-1.3,23.349,23.349,0,0,0-2.32-1.04q-1.2-.48-2.4-1a12.353,12.353,0,0,1-2.22-1.24,5.507,5.507,0,0,1-1.62-1.76,5.051,5.051,0,0,1-.6-2.56,6.075,6.075,0,0,1,.32-1.84,5.578,5.578,0,0,1,1.08-1.9,5.624,5.624,0,0,1,2.08-1.48,8.4,8.4,0,0,1,3.36-.58,9.2,9.2,0,0,1,2.4.36,7.036,7.036,0,0,1,2.56,1.36l-.08-1.52h1.68v7h-1.28a7.916,7.916,0,0,0-.64-2.7,5.491,5.491,0,0,0-1.64-2.16,4.359,4.359,0,0,0-2.8-.86,4.2,4.2,0,0,0-2.88.92,2.765,2.765,0,0,0-1.04,2.12,2.87,2.87,0,0,0,.78,2.06,6.9,6.9,0,0,0,2.02,1.42q1.24.6,2.64,1.16,1.52.64,2.96,1.4a7.451,7.451,0,0,1,2.36,1.9,4.534,4.534,0,0,1,.92,2.94,5.269,5.269,0,0,1-1.02,3.32A5.985,5.985,0,0,1,196.5.02,8.954,8.954,0,0,1,193.2.64ZM203.52-1.2a2.059,2.059,0,0,0,1.72-.62,3.134,3.134,0,0,0,.56-1.72q.08-1.1.08-2.54V-15.2q0-.64.04-1.22t.12-1.38l-1.42.08-1.42.08v-1.68a17.609,17.609,0,0,0,2.72-.16,5.68,5.68,0,0,0,1.46-.4,2.828,2.828,0,0,0,.78-.52h1.16V-4.24q0,.8-.02,1.42a9.194,9.194,0,0,1-.14,1.3q.64-.04,1.26-.06t1.26-.06V0h-8.16Zm3.84-23.16a1.977,1.977,0,0,1-1.48-.68,2.358,2.358,0,0,1-.64-1.68,2.387,2.387,0,0,1,.66-1.7,2.014,2.014,0,0,1,1.5-.7,1.974,1.974,0,0,1,1.54.7,2.474,2.474,0,0,1,.62,1.7,2.318,2.318,0,0,1-.66,1.68A2.081,2.081,0,0,1,207.36-24.36ZM214.76,0V-1.2a2.059,2.059,0,0,0,1.72-.62,3.134,3.134,0,0,0,.56-1.72q.08-1.1.08-2.54l.04-9.12q0-.64.02-1.28a9.261,9.261,0,0,1,.14-1.32l-1.42.08-1.42.08v-1.68a16.4,16.4,0,0,0,2.66-.16,4.618,4.618,0,0,0,1.34-.4,3.132,3.132,0,0,0,.72-.52h1.16q.04.28.06.64t.06.8q.04.44.04,1a12,12,0,0,1,1.94-1.36,11.119,11.119,0,0,1,2.24-.96,7.987,7.987,0,0,1,2.34-.36,5.88,5.88,0,0,1,5.08,2.18q1.6,2.18,1.6,6.78v7.44q0,.8-.02,1.42a9.2,9.2,0,0,1-.14,1.3q.64-.04,1.26-.06t1.26-.06V0h-8.16V-1.2a2.059,2.059,0,0,0,1.72-.62,3.134,3.134,0,0,0,.56-1.72q.08-1.1.08-2.54v-5.6a10.158,10.158,0,0,0-1.14-5.2,3.7,3.7,0,0,0-3.46-1.72,6.426,6.426,0,0,0-2.82.76,7.306,7.306,0,0,0-2.3,1.84,5.846,5.846,0,0,1,.04.72v.84l-.04,10.2q0,.8-.02,1.42a9.194,9.194,0,0,1-.14,1.3q.64-.04,1.26-.06t1.26-.06V0Zm34.2.64a10.073,10.073,0,0,1-5.08-1.3,9.671,9.671,0,0,1-3.62-3.6,10.255,10.255,0,0,1-1.34-5.26,12.055,12.055,0,0,1,1.32-5.68,10.3,10.3,0,0,1,3.6-3.98,9.293,9.293,0,0,1,5.12-1.46,9.839,9.839,0,0,1,5.08,1.34,10.183,10.183,0,0,1,3.64,3.62,9.954,9.954,0,0,1,1.36,5.2,11.857,11.857,0,0,1-1.34,5.62,10.567,10.567,0,0,1-3.62,4.02A9.2,9.2,0,0,1,248.96.64Zm.32-1.6a4.627,4.627,0,0,0,3.36-1.2,6.8,6.8,0,0,0,1.78-3.12,14.854,14.854,0,0,0,.54-4.04,18.416,18.416,0,0,0-.34-3.54,12.071,12.071,0,0,0-1.06-3.16,6.263,6.263,0,0,0-1.86-2.26,4.491,4.491,0,0,0-2.74-.84,4.859,4.859,0,0,0-3.4,1.2,7.039,7.039,0,0,0-1.94,3.12,13.331,13.331,0,0,0-.62,4.12,15.962,15.962,0,0,0,.68,4.7,8.553,8.553,0,0,0,2.08,3.62A4.773,4.773,0,0,0,249.28-.96Zm24.12-.36a2.969,2.969,0,0,0,2.08-.7,2.7,2.7,0,0,0,.62-1.72q.06-1.1.06-2.5V-23.52q0-.8.04-1.54t.08-1.34l-1.44.08-1.44.08V-28l9.44-.04a24.429,24.429,0,0,1,6.6.84,14.432,14.432,0,0,1,5.18,2.58,11.493,11.493,0,0,1,3.36,4.4,15.335,15.335,0,0,1,1.18,6.26,14.706,14.706,0,0,1-.96,5.28,12.71,12.71,0,0,1-2.88,4.46,13.817,13.817,0,0,1-4.78,3.08A17.792,17.792,0,0,1,283.92,0H273.4Zm6.24-3.4q0,1.08-.02,1.84a10.424,10.424,0,0,1-.1,1.28q1.08.04,1.98.06t1.52.02h.78a11.176,11.176,0,0,0,4.7-.96,10.645,10.645,0,0,0,3.6-2.66,12.129,12.129,0,0,0,2.32-4,14.726,14.726,0,0,0,.82-4.98,14.643,14.643,0,0,0-1.38-6.58,9.781,9.781,0,0,0-4.22-4.32,15.1,15.1,0,0,0-7.24-1.54,2.816,2.816,0,0,0-2.06.6,2.53,2.53,0,0,0-.64,1.68q-.06,1.08-.06,2.52ZM312.44.64a9.671,9.671,0,0,1-4.98-1.3,9.224,9.224,0,0,1-3.5-3.68,11.7,11.7,0,0,1-1.28-5.62,11.256,11.256,0,0,1,1.26-5.24,10.287,10.287,0,0,1,3.54-3.94,9.386,9.386,0,0,1,5.28-1.5,8.981,8.981,0,0,1,3.14.54,7.216,7.216,0,0,1,2.58,1.64,7.671,7.671,0,0,1,1.76,2.76,10.819,10.819,0,0,1,.64,3.9l-14.08.24a19.432,19.432,0,0,0,.66,5.34,7.1,7.1,0,0,0,2.14,3.56,5.657,5.657,0,0,0,3.8,1.26,7.9,7.9,0,0,0,2.54-.44,10,10,0,0,0,2.42-1.2,7.3,7.3,0,0,0,1.8-1.68l.96.8a8.926,8.926,0,0,1-2.6,2.68A10.955,10.955,0,0,1,315.4.2,11.218,11.218,0,0,1,312.44.64Zm-5.52-13.88h10.2a9.24,9.24,0,0,0-.42-2.78,4.82,4.82,0,0,0-1.38-2.2,3.634,3.634,0,0,0-2.52-.86,5.569,5.569,0,0,0-3.86,1.38A7.311,7.311,0,0,0,306.92-13.24ZM336.52,0q-.12-.68-.16-1.2t-.12-1.08A11.118,11.118,0,0,1,333.3-.14a7.448,7.448,0,0,1-3.34.78,6.434,6.434,0,0,1-4.52-1.38,4.443,4.443,0,0,1-1.48-3.38A4.749,4.749,0,0,1,325.1-7.3a8.688,8.688,0,0,1,2.96-2.2,16.806,16.806,0,0,1,3.96-1.28,19.454,19.454,0,0,1,4.14-.38v-2.48a13.882,13.882,0,0,0-.24-2.64,3.836,3.836,0,0,0-1.04-2.04,3.629,3.629,0,0,0-2.56-.84,5.91,5.91,0,0,0-2.38.44,3.21,3.21,0,0,0-1.78,1.64,1.534,1.534,0,0,1,.42.74,3.382,3.382,0,0,1,.1.78,2.1,2.1,0,0,1-.4,1.1,1.461,1.461,0,0,1-1.4.58,1.508,1.508,0,0,1-1.28-.58,2.218,2.218,0,0,1-.44-1.38,3.463,3.463,0,0,1,1.02-2.44A7.046,7.046,0,0,1,329-20a12.132,12.132,0,0,1,4.08-.64,6.345,6.345,0,0,1,4.96,1.78q1.6,1.78,1.56,5.62v2.98q0,1.5-.02,3t-.02,3.02q0,.64-.04,1.28t-.12,1.44l1.42-.08,1.42-.08V0Zm-.36-9.8a17.179,17.179,0,0,0-2.86.34,11.756,11.756,0,0,0-2.76.9,5.671,5.671,0,0,0-2.04,1.58,3.532,3.532,0,0,0-.74,2.38,2.925,2.925,0,0,0,.98,2.22,3.263,3.263,0,0,0,2.14.74,6.235,6.235,0,0,0,2.86-.62A10.666,10.666,0,0,0,336.16-4q-.04-.44-.04-.96V-6.04q0-.2.02-1.28T336.16-9.8Zm8.44,8.6a2.059,2.059,0,0,0,1.72-.62,3.134,3.134,0,0,0,.56-1.72q.08-1.1.08-2.54V-25q0-.64.02-1.22t.1-1.38l-1.42.08-1.42.08v-1.68a18.022,18.022,0,0,0,2.74-.16,5.71,5.71,0,0,0,1.48-.4,2.828,2.828,0,0,0,.78-.52h1.16l.04,25.96q0,.8-.04,1.42a11.907,11.907,0,0,1-.16,1.3q.64-.04,1.26-.06t1.26-.06V0H344.6ZM365.56.64a9.671,9.671,0,0,1-4.98-1.3,9.224,9.224,0,0,1-3.5-3.68,11.7,11.7,0,0,1-1.28-5.62,11.256,11.256,0,0,1,1.26-5.24,10.287,10.287,0,0,1,3.54-3.94,9.386,9.386,0,0,1,5.28-1.5,8.981,8.981,0,0,1,3.14.54,7.216,7.216,0,0,1,2.58,1.64,7.671,7.671,0,0,1,1.76,2.76,10.819,10.819,0,0,1,.64,3.9l-14.08.24a19.432,19.432,0,0,0,.66,5.34,7.1,7.1,0,0,0,2.14,3.56,5.657,5.657,0,0,0,3.8,1.26,7.9,7.9,0,0,0,2.54-.44,10,10,0,0,0,2.42-1.2,7.3,7.3,0,0,0,1.8-1.68l.96.8a8.926,8.926,0,0,1-2.6,2.68A10.955,10.955,0,0,1,368.52.2,11.218,11.218,0,0,1,365.56.64Zm-5.52-13.88h10.2a9.24,9.24,0,0,0-.42-2.78,4.82,4.82,0,0,0-1.38-2.2,3.634,3.634,0,0,0-2.52-.86,5.569,5.569,0,0,0-3.86,1.38A7.311,7.311,0,0,0,360.04-13.24ZM377.56-1.2a2.059,2.059,0,0,0,1.72-.62,3.134,3.134,0,0,0,.56-1.72q.08-1.1.08-2.54V-15.2q0-.64.02-1.28a9.263,9.263,0,0,1,.14-1.32q-.72.04-1.42.06t-1.42.06v-1.64h1.24a5.749,5.749,0,0,0,2.38-.34,5.1,5.1,0,0,0,1.1-.74h1.16q.08.64.12,1.58t.08,2.38a9.017,9.017,0,0,1,1.64-1.96A9.829,9.829,0,0,1,387.3-20a6.125,6.125,0,0,1,2.74-.64,3.285,3.285,0,0,1,1.96.6,2.2,2.2,0,0,1,.84,1.92,2.033,2.033,0,0,1-.2.78,2.031,2.031,0,0,1-.64.8,1.846,1.846,0,0,1-1.16.34,1.8,1.8,0,0,1-1.4-.7,1.96,1.96,0,0,1-.4-1.54,4.042,4.042,0,0,0-2.06.52A7.581,7.581,0,0,0,385-16.38a11.112,11.112,0,0,0-1.64,2.3l.04,9.84q0,.8-.02,1.42a9.2,9.2,0,0,1-.14,1.3q.64-.04,1.26-.06t1.26-.06V0h-8.2Z" transform="translate(423.75 4013)"/>
    <path id="Path_3" data-name="Path 3" d="M2.2-1.32a2.969,2.969,0,0,0,2.08-.7A2.7,2.7,0,0,0,4.9-3.74q.06-1.1.06-2.5V-23.52q0-.8.04-1.54t.08-1.34l-1.44.08-1.44.08V-28q2.12-.04,4.36-.06t4.56-.02a20.834,20.834,0,0,1,6.52.88,8.521,8.521,0,0,1,4.04,2.6,7.11,7.11,0,0,1,1.52,4.28,9.182,9.182,0,0,1-.46,3.26,8.132,8.132,0,0,1-2,3.2,10.389,10.389,0,0,1-4.1,2.42,20.882,20.882,0,0,1-6.76.92h-.6q-.44,0-.84-.04v5.8q0,1.08-.02,1.86a10.565,10.565,0,0,1-.1,1.3l1.24-.08q.6-.04,1.22-.06T12-1.8V0H2.2ZM8.44-12.2q.76.08,1.3.1t1.3.02a9.509,9.509,0,0,0,4.16-.9,7.337,7.337,0,0,0,3-2.58,7.043,7.043,0,0,0,1.12-4,7.843,7.843,0,0,0-.6-3.22,5.375,5.375,0,0,0-1.7-2.16,7.286,7.286,0,0,0-2.62-1.2,13.853,13.853,0,0,0-3.36-.38,2.538,2.538,0,0,0-1.94.6,2.625,2.625,0,0,0-.6,1.66q-.06,1.06-.06,2.5ZM26-1.2a2.059,2.059,0,0,0,1.72-.62,3.134,3.134,0,0,0,.56-1.72q.08-1.1.08-2.54V-15.2q0-.64.02-1.28a9.261,9.261,0,0,1,.14-1.32q-.72.04-1.42.06t-1.42.06v-1.64h1.24a5.749,5.749,0,0,0,2.38-.34,5.1,5.1,0,0,0,1.1-.74h1.16q.08.64.12,1.58t.08,2.38A9.017,9.017,0,0,1,33.4-18.4,9.829,9.829,0,0,1,35.74-20a6.125,6.125,0,0,1,2.74-.64,3.284,3.284,0,0,1,1.96.6,2.2,2.2,0,0,1,.84,1.92,2.033,2.033,0,0,1-.2.78,2.032,2.032,0,0,1-.64.8,1.846,1.846,0,0,1-1.16.34,1.8,1.8,0,0,1-1.4-.7,1.96,1.96,0,0,1-.4-1.54,4.042,4.042,0,0,0-2.06.52,7.582,7.582,0,0,0-1.98,1.54,11.112,11.112,0,0,0-1.64,2.3l.04,9.84q0,.8-.02,1.42a9.2,9.2,0,0,1-.14,1.3q.64-.04,1.26-.06t1.26-.06V0H26ZM52.96.64a10.073,10.073,0,0,1-5.08-1.3,9.671,9.671,0,0,1-3.62-3.6,10.255,10.255,0,0,1-1.34-5.26,12.055,12.055,0,0,1,1.32-5.68,10.3,10.3,0,0,1,3.6-3.98,9.292,9.292,0,0,1,5.12-1.46,9.839,9.839,0,0,1,5.08,1.34,10.183,10.183,0,0,1,3.64,3.62,9.954,9.954,0,0,1,1.36,5.2A11.857,11.857,0,0,1,61.7-4.86,10.567,10.567,0,0,1,58.08-.84,9.2,9.2,0,0,1,52.96.64Zm.32-1.6a4.627,4.627,0,0,0,3.36-1.2,6.8,6.8,0,0,0,1.78-3.12,14.854,14.854,0,0,0,.54-4.04,18.416,18.416,0,0,0-.34-3.54,12.071,12.071,0,0,0-1.06-3.16,6.263,6.263,0,0,0-1.86-2.26,4.491,4.491,0,0,0-2.74-.84,4.859,4.859,0,0,0-3.4,1.2,7.039,7.039,0,0,0-1.94,3.12A13.331,13.331,0,0,0,47-10.68a15.961,15.961,0,0,0,.68,4.7,8.553,8.553,0,0,0,2.08,3.62A4.773,4.773,0,0,0,53.28-.96Zm11.04,11.8a3.534,3.534,0,0,1-2.4-.68,2.017,2.017,0,0,1-.3-2.86,1.521,1.521,0,0,1,1.26-.58,1.414,1.414,0,0,1,1.38.58,2.174,2.174,0,0,1,.38,1.1v.18a.4.4,0,0,1-.04.18A2.656,2.656,0,0,0,65.64,9a2.026,2.026,0,0,0,1.76-.84,4.9,4.9,0,0,0,.8-2.12,16.816,16.816,0,0,0,.2-2.6l.08-18.64q0-.64.02-1.22t.1-1.38l-1.42.08-1.42.08v-1.68a18.022,18.022,0,0,0,2.74-.16,5.71,5.71,0,0,0,1.48-.4,2.828,2.828,0,0,0,.78-.52h1.16V.12a15.886,15.886,0,0,1-1,6.1,7.463,7.463,0,0,1-2.72,3.5A6.955,6.955,0,0,1,64.32,10.84Zm5.64-35.2a1.977,1.977,0,0,1-1.48-.68,2.358,2.358,0,0,1-.64-1.68,2.387,2.387,0,0,1,.66-1.7,2.014,2.014,0,0,1,1.5-.7,1.974,1.974,0,0,1,1.54.7,2.474,2.474,0,0,1,.62,1.7,2.318,2.318,0,0,1-.66,1.68A2.081,2.081,0,0,1,69.96-24.36Zm16.6,25a9.671,9.671,0,0,1-4.98-1.3,9.224,9.224,0,0,1-3.5-3.68A11.7,11.7,0,0,1,76.8-9.96a11.256,11.256,0,0,1,1.26-5.24,10.287,10.287,0,0,1,3.54-3.94,9.386,9.386,0,0,1,5.28-1.5,8.981,8.981,0,0,1,3.14.54,7.216,7.216,0,0,1,2.58,1.64,7.671,7.671,0,0,1,1.76,2.76A10.819,10.819,0,0,1,95-11.8l-14.08.24a19.432,19.432,0,0,0,.66,5.34,7.1,7.1,0,0,0,2.14,3.56,5.657,5.657,0,0,0,3.8,1.26,7.9,7.9,0,0,0,2.54-.44,10,10,0,0,0,2.42-1.2,7.3,7.3,0,0,0,1.8-1.68l.96.8a8.926,8.926,0,0,1-2.6,2.68A10.955,10.955,0,0,1,89.52.2,11.218,11.218,0,0,1,86.56.64ZM81.04-13.24h10.2a9.24,9.24,0,0,0-.42-2.78,4.82,4.82,0,0,0-1.38-2.2,3.634,3.634,0,0,0-2.52-.86,5.569,5.569,0,0,0-3.86,1.38A7.311,7.311,0,0,0,81.04-13.24ZM108.12.64a10.233,10.233,0,0,1-4.94-1.22,9.131,9.131,0,0,1-3.6-3.52,10.825,10.825,0,0,1-1.34-5.54A11.083,11.083,0,0,1,99-13.68a11.857,11.857,0,0,1,2.14-3.54,10.163,10.163,0,0,1,3.3-2.5,9.684,9.684,0,0,1,4.24-.92,10.247,10.247,0,0,1,3.9.68,6.388,6.388,0,0,1,2.58,1.8,3.764,3.764,0,0,1,.92,2.44,2.377,2.377,0,0,1-.48,1.5,1.663,1.663,0,0,1-1.4.62,1.476,1.476,0,0,1-1.42-.62,2.267,2.267,0,0,1-.42-1.18,2.978,2.978,0,0,1,.12-.82,1.8,1.8,0,0,1,.48-.78,2.466,2.466,0,0,0-1.12-1.42,4.887,4.887,0,0,0-1.66-.6,9.167,9.167,0,0,0-1.42-.14,5.793,5.793,0,0,0-4.58,2.18q-1.86,2.18-1.86,6.34a12.37,12.37,0,0,0,.86,4.76,7.63,7.63,0,0,0,2.42,3.26,5.805,5.805,0,0,0,3.6,1.18,7.06,7.06,0,0,0,3.6-1,7.941,7.941,0,0,0,2.68-2.44l1.04.8a9.28,9.28,0,0,1-2.5,2.72,10.616,10.616,0,0,1-3,1.52A9.764,9.764,0,0,1,108.12.64Zm18.84,0a7.174,7.174,0,0,1-1.88-.26A4.239,4.239,0,0,1,123.3-.64,5.16,5.16,0,0,1,122-2.86a12.687,12.687,0,0,1-.48-3.86l.08-11.6-3.08.04V-20a4.033,4.033,0,0,0,2.12-.78,7.416,7.416,0,0,0,1.94-2.02,7.887,7.887,0,0,0,1.18-2.8h1.36V-20h6.72v1.56l-6.72.08-.08,11.12a13.41,13.41,0,0,0,.3,3.06,3.725,3.725,0,0,0,.98,1.9,2.464,2.464,0,0,0,1.76.64,3.771,3.771,0,0,0,2.1-.64,6.254,6.254,0,0,0,1.74-1.76l1.08.88a10.662,10.662,0,0,1-1.74,2.08A7.264,7.264,0,0,1,129.6.06a5.285,5.285,0,0,1-1.48.48A8.165,8.165,0,0,1,126.96.64Zm34-.24q-1.76-4-3.56-7.98t-3.52-8.06q-.56-1.28-1.1-2.58t-1.04-2.62q-.5-1.32-1.02-2.64,0,.44-.02.88t-.02.88q-.04,1.44-.1,3.46t-.14,4.32q-.08,2.3-.12,4.6T150.24-5q-.04.88-.06,1.76t-.1,1.64l1.5-.08,1.5-.08V0h-7.64V-1.32a2.9,2.9,0,0,0,1.82-.54A2.267,2.267,0,0,0,148-3.2a12.384,12.384,0,0,0,.2-1.8l.76-18.24q.04-.8.06-1.6t.06-1.56q-.72.04-1.44.06t-1.44.06V-28h6.12l6.88,15.88q.52,1.2,1.02,2.4t1.04,2.4q.54,1.2,1.06,2.44h.08q.44-1.08,1.04-2.58t1-2.58q1.76-4.4,3.66-8.82T171.84-28h5.92v1.32a2.729,2.729,0,0,0-1.64.38,2.359,2.359,0,0,0-.92,1.38,8.2,8.2,0,0,0-.2,2.6l1.04,18.2a11.3,11.3,0,0,1,.08,1.32v1.16q.72-.04,1.46-.06t1.46-.06V0h-8.96V-1.32a2.756,2.756,0,0,0,1.84-.6,2.576,2.576,0,0,0,.74-1.6,14.089,14.089,0,0,0,.06-2.56l-.8-13.2-.08-1.28-.08-1.28-.08-1.28q-.12.28-.26.6t-.26.68L162.16.4ZM194.32,0q-.12-.68-.16-1.2t-.12-1.08A11.118,11.118,0,0,1,191.1-.14a7.448,7.448,0,0,1-3.34.78,6.434,6.434,0,0,1-4.52-1.38,4.443,4.443,0,0,1-1.48-3.38A4.749,4.749,0,0,1,182.9-7.3a8.687,8.687,0,0,1,2.96-2.2,16.805,16.805,0,0,1,3.96-1.28,19.455,19.455,0,0,1,4.14-.38v-2.48a13.884,13.884,0,0,0-.24-2.64,3.836,3.836,0,0,0-1.04-2.04,3.629,3.629,0,0,0-2.56-.84,5.91,5.91,0,0,0-2.38.44,3.21,3.21,0,0,0-1.78,1.64,1.534,1.534,0,0,1,.42.74,3.382,3.382,0,0,1,.1.78,2.1,2.1,0,0,1-.4,1.1,1.461,1.461,0,0,1-1.4.58,1.508,1.508,0,0,1-1.28-.58,2.218,2.218,0,0,1-.44-1.38,3.463,3.463,0,0,1,1.02-2.44A7.046,7.046,0,0,1,186.8-20a12.132,12.132,0,0,1,4.08-.64,6.345,6.345,0,0,1,4.96,1.78q1.6,1.78,1.56,5.62v2.98q0,1.5-.02,3t-.02,3.02q0,.64-.04,1.28t-.12,1.44l1.42-.08,1.42-.08V0Zm-.36-9.8a17.179,17.179,0,0,0-2.86.34,11.756,11.756,0,0,0-2.76.9,5.671,5.671,0,0,0-2.04,1.58,3.532,3.532,0,0,0-.74,2.38,2.925,2.925,0,0,0,.98,2.22,3.263,3.263,0,0,0,2.14.74,6.235,6.235,0,0,0,2.86-.62A10.666,10.666,0,0,0,193.96-4q-.04-.44-.04-.96V-6.04q0-.2.02-1.28T193.96-9.8ZM202.8,0V-1.2a2.059,2.059,0,0,0,1.72-.62,3.134,3.134,0,0,0,.56-1.72q.08-1.1.08-2.54l.04-9.12q0-.64.02-1.28a9.258,9.258,0,0,1,.14-1.32l-1.42.08-1.42.08v-1.68a16.4,16.4,0,0,0,2.66-.16,4.618,4.618,0,0,0,1.34-.4,3.132,3.132,0,0,0,.72-.52h1.16q.04.28.06.64t.06.8q.04.44.04,1a12,12,0,0,1,1.94-1.36,11.119,11.119,0,0,1,2.24-.96,7.987,7.987,0,0,1,2.34-.36,5.88,5.88,0,0,1,5.08,2.18q1.6,2.18,1.6,6.78v7.44q0,.8-.02,1.42a9.194,9.194,0,0,1-.14,1.3q.64-.04,1.26-.06t1.26-.06V0h-8.16V-1.2a2.059,2.059,0,0,0,1.72-.62,3.134,3.134,0,0,0,.56-1.72q.08-1.1.08-2.54v-5.6a10.158,10.158,0,0,0-1.14-5.2,3.7,3.7,0,0,0-3.46-1.72,6.426,6.426,0,0,0-2.82.76A7.306,7.306,0,0,0,208.6-16a5.846,5.846,0,0,1,.04.72v.84l-.04,10.2q0,.8-.02,1.42a9.194,9.194,0,0,1-.14,1.3q.64-.04,1.26-.06t1.26-.06V0Zm36.44,0q-.12-.68-.16-1.2t-.12-1.08a11.118,11.118,0,0,1-2.94,2.14,7.448,7.448,0,0,1-3.34.78,6.434,6.434,0,0,1-4.52-1.38,4.443,4.443,0,0,1-1.48-3.38,4.749,4.749,0,0,1,1.14-3.18,8.687,8.687,0,0,1,2.96-2.2,16.805,16.805,0,0,1,3.96-1.28,19.455,19.455,0,0,1,4.14-.38v-2.48a13.884,13.884,0,0,0-.24-2.64,3.836,3.836,0,0,0-1.04-2.04,3.629,3.629,0,0,0-2.56-.84,5.91,5.91,0,0,0-2.38.44,3.21,3.21,0,0,0-1.78,1.64,1.534,1.534,0,0,1,.42.74,3.382,3.382,0,0,1,.1.78,2.1,2.1,0,0,1-.4,1.1,1.461,1.461,0,0,1-1.4.58,1.508,1.508,0,0,1-1.28-.58,2.218,2.218,0,0,1-.44-1.38,3.463,3.463,0,0,1,1.02-2.44A7.046,7.046,0,0,1,231.72-20a12.132,12.132,0,0,1,4.08-.64,6.345,6.345,0,0,1,4.96,1.78q1.6,1.78,1.56,5.62v2.98q0,1.5-.02,3t-.02,3.02q0,.64-.04,1.28t-.12,1.44l1.42-.08,1.42-.08V0Zm-.36-9.8a17.179,17.179,0,0,0-2.86.34,11.756,11.756,0,0,0-2.76.9,5.671,5.671,0,0,0-2.04,1.58,3.532,3.532,0,0,0-.74,2.38,2.925,2.925,0,0,0,.98,2.22,3.263,3.263,0,0,0,2.14.74,6.235,6.235,0,0,0,2.86-.62A10.666,10.666,0,0,0,238.88-4q-.04-.44-.04-.96V-6.04q0-.2.02-1.28T238.88-9.8Zm18.48,20.64a17.341,17.341,0,0,1-5.8-.8A7.142,7.142,0,0,1,248.36,8a4.025,4.025,0,0,1-.42-4.74,6.2,6.2,0,0,1,1.44-1.62,6.779,6.779,0,0,1,1.66-1,5.193,5.193,0,0,1-2.02-1.18,2.676,2.676,0,0,1-.74-1.98,3.818,3.818,0,0,1,1.12-2.62,4.808,4.808,0,0,1,2.88-1.5,7.451,7.451,0,0,1-2.94-2.44,6.155,6.155,0,0,1-1.1-3.64,7.128,7.128,0,0,1,1.24-4.18,8.472,8.472,0,0,1,3.18-2.76,8.81,8.81,0,0,1,4.02-.98,9.5,9.5,0,0,1,2.64.38,9.182,9.182,0,0,1,2.44,1.1,6.448,6.448,0,0,1,1.14-2,5.581,5.581,0,0,1,1.7-1.38,4.275,4.275,0,0,1,2-.5,2.141,2.141,0,0,1,1.58.54,1.973,1.973,0,0,1,.54,1.46,1.9,1.9,0,0,1-.16.68,1.557,1.557,0,0,1-.54.68,1.682,1.682,0,0,1-1.02.28,1.6,1.6,0,0,1-1.12-.4,1.789,1.789,0,0,1-.56-1,2.282,2.282,0,0,0-1.56.94,4.542,4.542,0,0,0-.76,1.7,6.678,6.678,0,0,1,1.54,2.12,6.155,6.155,0,0,1,.58,2.64,7.017,7.017,0,0,1-1.18,4,8.1,8.1,0,0,1-3.1,2.74,9.018,9.018,0,0,1-4.16.98,7.605,7.605,0,0,1-1.32-.1,7.882,7.882,0,0,0-1.36-.1,3.782,3.782,0,0,0-2.4.72,1.529,1.529,0,0,0-.64,1.72q.32.96,1.96,1.22a40.734,40.734,0,0,0,4.4.38,23.821,23.821,0,0,1,5.28.72A7.052,7.052,0,0,1,265.98.74a4.8,4.8,0,0,1,1.18,3.42,4.954,4.954,0,0,1-.86,2.86,7.063,7.063,0,0,1-2.28,2.1,11.9,11.9,0,0,1-3.16,1.28A14.225,14.225,0,0,1,257.36,10.84Zm-.04-1.56A9.6,9.6,0,0,0,262.68,8a3.627,3.627,0,0,0,1.92-3,2.694,2.694,0,0,0-1-2.26,6.064,6.064,0,0,0-2.72-1.08,25.96,25.96,0,0,0-3.96-.34q-1.08-.04-2.12-.1a18.725,18.725,0,0,1-2-.22,5.279,5.279,0,0,0-1.68,1.76,4.335,4.335,0,0,0-.6,2.2,3.579,3.579,0,0,0,1.86,3.14A9.121,9.121,0,0,0,257.32,9.28Zm-.52-16.4a4.044,4.044,0,0,0,2.46-.72,4.415,4.415,0,0,0,1.48-1.96,7.432,7.432,0,0,0,.5-2.8,10.068,10.068,0,0,0-.52-3.28,5.685,5.685,0,0,0-1.54-2.44,3.706,3.706,0,0,0-2.58-.92,3.889,3.889,0,0,0-3.34,1.62,6.646,6.646,0,0,0-1.18,4.02,9.4,9.4,0,0,0,.56,3.38,5.115,5.115,0,0,0,1.62,2.28A4.028,4.028,0,0,0,256.8-7.12ZM279.32.64a9.671,9.671,0,0,1-4.98-1.3,9.224,9.224,0,0,1-3.5-3.68,11.7,11.7,0,0,1-1.28-5.62,11.256,11.256,0,0,1,1.26-5.24,10.287,10.287,0,0,1,3.54-3.94,9.386,9.386,0,0,1,5.28-1.5,8.981,8.981,0,0,1,3.14.54,7.216,7.216,0,0,1,2.58,1.64,7.671,7.671,0,0,1,1.76,2.76,10.819,10.819,0,0,1,.64,3.9l-14.08.24a19.432,19.432,0,0,0,.66,5.34,7.1,7.1,0,0,0,2.14,3.56,5.657,5.657,0,0,0,3.8,1.26,7.9,7.9,0,0,0,2.54-.44,10,10,0,0,0,2.42-1.2,7.3,7.3,0,0,0,1.8-1.68l.96.8a8.926,8.926,0,0,1-2.6,2.68A10.955,10.955,0,0,1,282.28.2,11.218,11.218,0,0,1,279.32.64ZM273.8-13.24H284a9.24,9.24,0,0,0-.42-2.78,4.82,4.82,0,0,0-1.38-2.2,3.634,3.634,0,0,0-2.52-.86,5.569,5.569,0,0,0-3.86,1.38A7.311,7.311,0,0,0,273.8-13.24ZM291.32-1.2a2.059,2.059,0,0,0,1.72-.62,3.134,3.134,0,0,0,.56-1.72q.08-1.1.08-2.54V-15.2q0-.64.02-1.28a9.263,9.263,0,0,1,.14-1.32q-.72.04-1.42.06t-1.42.06v-1.64h1.24a5.749,5.749,0,0,0,2.38-.34,5.1,5.1,0,0,0,1.1-.74h1.16q.08.64.12,1.58t.08,2.38a9.017,9.017,0,0,1,1.64-1.96,9.829,9.829,0,0,1,2.34-1.6,6.125,6.125,0,0,1,2.74-.64,3.285,3.285,0,0,1,1.96.6,2.2,2.2,0,0,1,.84,1.92,2.033,2.033,0,0,1-.2.78,2.031,2.031,0,0,1-.64.8,1.846,1.846,0,0,1-1.16.34,1.8,1.8,0,0,1-1.4-.7,1.96,1.96,0,0,1-.4-1.54,4.042,4.042,0,0,0-2.06.52,7.581,7.581,0,0,0-1.98,1.54,11.112,11.112,0,0,0-1.64,2.3l.04,9.84q0,.8-.02,1.42a9.2,9.2,0,0,1-.14,1.3q.64-.04,1.26-.06t1.26-.06V0h-8.2Z" transform="translate(423.75 4374)"/>
    <path id="Path_2" data-name="Path 2" d="M24.32-19.08a8.986,8.986,0,0,0-2.62-5.84A8,8,0,0,0,16-27a9.019,9.019,0,0,0-3.98.9,9.743,9.743,0,0,0-3.26,2.58,12.509,12.509,0,0,0-2.2,4.04,16.517,16.517,0,0,0-.8,5.32A14.658,14.658,0,0,0,7.2-7.52a11.21,11.21,0,0,0,3.88,4.48,9.64,9.64,0,0,0,5.4,1.6A11.962,11.962,0,0,0,21.6-2.62a10.391,10.391,0,0,0,4.12-3.42l1.04.84a14.077,14.077,0,0,1-3.72,3.64A12.765,12.765,0,0,1,19.06.18a16.107,16.107,0,0,1-3.62.46A13.723,13.723,0,0,1,9.94-.44,12.829,12.829,0,0,1,5.62-3.46a13.578,13.578,0,0,1-2.8-4.52,15.585,15.585,0,0,1-.98-5.58,17.956,17.956,0,0,1,.86-5.52,15.113,15.113,0,0,1,2.58-4.84,12.434,12.434,0,0,1,4.34-3.44,13.74,13.74,0,0,1,6.1-1.28,14.681,14.681,0,0,1,4.24.6A14.1,14.1,0,0,1,23.8-26.2l-.2-2.16h2.16v9.28ZM41.88,0q-.12-.68-.16-1.2T41.6-2.28A11.118,11.118,0,0,1,38.66-.14a7.448,7.448,0,0,1-3.34.78A6.434,6.434,0,0,1,30.8-.74a4.443,4.443,0,0,1-1.48-3.38A4.749,4.749,0,0,1,30.46-7.3a8.687,8.687,0,0,1,2.96-2.2,16.805,16.805,0,0,1,3.96-1.28,19.455,19.455,0,0,1,4.14-.38v-2.48a13.883,13.883,0,0,0-.24-2.64,3.836,3.836,0,0,0-1.04-2.04,3.629,3.629,0,0,0-2.56-.84,5.91,5.91,0,0,0-2.38.44,3.21,3.21,0,0,0-1.78,1.64,1.534,1.534,0,0,1,.42.74,3.381,3.381,0,0,1,.1.78,2.1,2.1,0,0,1-.4,1.1,1.461,1.461,0,0,1-1.4.58,1.508,1.508,0,0,1-1.28-.58,2.218,2.218,0,0,1-.44-1.38,3.463,3.463,0,0,1,1.02-2.44A7.046,7.046,0,0,1,34.36-20a12.132,12.132,0,0,1,4.08-.64,6.345,6.345,0,0,1,4.96,1.78q1.6,1.78,1.56,5.62v2.98q0,1.5-.02,3t-.02,3.02q0,.64-.04,1.28t-.12,1.44l1.42-.08,1.42-.08V0Zm-.36-9.8a17.179,17.179,0,0,0-2.86.34,11.756,11.756,0,0,0-2.76.9,5.671,5.671,0,0,0-2.04,1.58,3.532,3.532,0,0,0-.74,2.38,2.925,2.925,0,0,0,.98,2.22,3.263,3.263,0,0,0,2.14.74,6.235,6.235,0,0,0,2.86-.62A10.666,10.666,0,0,0,41.52-4q-.04-.44-.04-.96V-6.04q0-.2.02-1.28T41.52-9.8ZM58.56.64A10.856,10.856,0,0,1,55,.1a10.927,10.927,0,0,1-2.56-1.22L52.6.28H50.92L50.68-6.6h1.24a5.841,5.841,0,0,0,.92,2.94A5.913,5.913,0,0,0,55-1.64a5.838,5.838,0,0,0,2.84.72,6.3,6.3,0,0,0,2.04-.34A4.171,4.171,0,0,0,61.56-2.3a2.45,2.45,0,0,0,.68-1.78,2.691,2.691,0,0,0-.66-1.86,6,6,0,0,0-1.74-1.3,23.35,23.35,0,0,0-2.32-1.04q-1.2-.48-2.4-1a12.353,12.353,0,0,1-2.22-1.24,5.507,5.507,0,0,1-1.62-1.76,5.051,5.051,0,0,1-.6-2.56A6.075,6.075,0,0,1,51-16.68a5.578,5.578,0,0,1,1.08-1.9,5.624,5.624,0,0,1,2.08-1.48,8.4,8.4,0,0,1,3.36-.58,9.2,9.2,0,0,1,2.4.36,7.036,7.036,0,0,1,2.56,1.36l-.08-1.52h1.68v7H62.8a7.916,7.916,0,0,0-.64-2.7,5.491,5.491,0,0,0-1.64-2.16,4.359,4.359,0,0,0-2.8-.86,4.2,4.2,0,0,0-2.88.92,2.765,2.765,0,0,0-1.04,2.12,2.87,2.87,0,0,0,.78,2.06,6.9,6.9,0,0,0,2.02,1.42q1.24.6,2.64,1.16,1.52.64,2.96,1.4a7.45,7.45,0,0,1,2.36,1.9,4.534,4.534,0,0,1,.92,2.94,5.269,5.269,0,0,1-1.02,3.32A5.985,5.985,0,0,1,61.86.02,8.954,8.954,0,0,1,58.56.64ZM68.88-1.2a2.059,2.059,0,0,0,1.72-.62,3.134,3.134,0,0,0,.56-1.72q.08-1.1.08-2.54V-15.2q0-.64.04-1.22t.12-1.38l-1.42.08-1.42.08v-1.68a17.608,17.608,0,0,0,2.72-.16,5.68,5.68,0,0,0,1.46-.4,2.828,2.828,0,0,0,.78-.52h1.16V-4.24q0,.8-.02,1.42a9.2,9.2,0,0,1-.14,1.3q.64-.04,1.26-.06t1.26-.06V0H68.88Zm3.84-23.16a1.977,1.977,0,0,1-1.48-.68,2.358,2.358,0,0,1-.64-1.68,2.387,2.387,0,0,1,.66-1.7,2.014,2.014,0,0,1,1.5-.7,1.974,1.974,0,0,1,1.54.7,2.474,2.474,0,0,1,.62,1.7,2.318,2.318,0,0,1-.66,1.68A2.081,2.081,0,0,1,72.72-24.36ZM80.12,0V-1.2a2.059,2.059,0,0,0,1.72-.62,3.134,3.134,0,0,0,.56-1.72q.08-1.1.08-2.54l.04-9.12q0-.64.02-1.28a9.26,9.26,0,0,1,.14-1.32l-1.42.08-1.42.08v-1.68a16.4,16.4,0,0,0,2.66-.16,4.618,4.618,0,0,0,1.34-.4,3.132,3.132,0,0,0,.72-.52h1.16q.04.28.06.64t.06.8q.04.44.04,1a12,12,0,0,1,1.94-1.36,11.12,11.12,0,0,1,2.24-.96,7.987,7.987,0,0,1,2.34-.36,5.88,5.88,0,0,1,5.08,2.18q1.6,2.18,1.6,6.78v7.44q0,.8-.02,1.42a9.2,9.2,0,0,1-.14,1.3q.64-.04,1.26-.06t1.26-.06V0H93.28V-1.2A2.059,2.059,0,0,0,95-1.82a3.134,3.134,0,0,0,.56-1.72q.08-1.1.08-2.54v-5.6a10.158,10.158,0,0,0-1.14-5.2,3.7,3.7,0,0,0-3.46-1.72,6.426,6.426,0,0,0-2.82.76A7.306,7.306,0,0,0,85.92-16a5.848,5.848,0,0,1,.04.72v.84l-.04,10.2q0,.8-.02,1.42a9.2,9.2,0,0,1-.14,1.3q.64-.04,1.26-.06t1.26-.06V0Zm34.2.64a10.073,10.073,0,0,1-5.08-1.3,9.671,9.671,0,0,1-3.62-3.6,10.255,10.255,0,0,1-1.34-5.26,12.055,12.055,0,0,1,1.32-5.68,10.3,10.3,0,0,1,3.6-3.98,9.293,9.293,0,0,1,5.12-1.46,9.839,9.839,0,0,1,5.08,1.34,10.183,10.183,0,0,1,3.64,3.62,9.954,9.954,0,0,1,1.36,5.2,11.857,11.857,0,0,1-1.34,5.62,10.567,10.567,0,0,1-3.62,4.02A9.2,9.2,0,0,1,114.32.64Zm.32-1.6A4.627,4.627,0,0,0,118-2.16a6.8,6.8,0,0,0,1.78-3.12,14.854,14.854,0,0,0,.54-4.04,18.416,18.416,0,0,0-.34-3.54,12.07,12.07,0,0,0-1.06-3.16,6.263,6.263,0,0,0-1.86-2.26,4.491,4.491,0,0,0-2.74-.84,4.859,4.859,0,0,0-3.4,1.2,7.039,7.039,0,0,0-1.94,3.12,13.331,13.331,0,0,0-.62,4.12,15.961,15.961,0,0,0,.68,4.7,8.553,8.553,0,0,0,2.08,3.62A4.773,4.773,0,0,0,114.64-.96Zm24.12-.36a2.969,2.969,0,0,0,2.08-.7,2.7,2.7,0,0,0,.62-1.72q.06-1.1.06-2.5V-23.52q0-.8.04-1.54t.08-1.34l-1.44.08-1.44.08V-28q2.12-.04,4.36-.06t4.56-.02a20.834,20.834,0,0,1,6.52.88,8.521,8.521,0,0,1,4.04,2.6,7.11,7.11,0,0,1,1.52,4.28,9.182,9.182,0,0,1-.46,3.26,8.132,8.132,0,0,1-2,3.2,10.389,10.389,0,0,1-4.1,2.42,20.882,20.882,0,0,1-6.76.92h-.6q-.44,0-.84-.04v5.8q0,1.08-.02,1.86a10.566,10.566,0,0,1-.1,1.3l1.24-.08q.6-.04,1.22-.06t1.22-.06V0h-9.8ZM145-12.2q.76.08,1.3.1t1.3.02a9.509,9.509,0,0,0,4.16-.9,7.337,7.337,0,0,0,3-2.58,7.043,7.043,0,0,0,1.12-4,7.843,7.843,0,0,0-.6-3.22,5.375,5.375,0,0,0-1.7-2.16,7.286,7.286,0,0,0-2.62-1.2,13.853,13.853,0,0,0-3.36-.38,2.538,2.538,0,0,0-1.94.6,2.625,2.625,0,0,0-.6,1.66q-.06,1.06-.06,2.5Zm17.56,11a2.059,2.059,0,0,0,1.72-.62,3.134,3.134,0,0,0,.56-1.72q.08-1.1.08-2.54V-15.2q0-.64.02-1.28a9.261,9.261,0,0,1,.14-1.32q-.72.04-1.42.06t-1.42.06v-1.64h1.24a5.749,5.749,0,0,0,2.38-.34,5.1,5.1,0,0,0,1.1-.74h1.16q.08.64.12,1.58t.08,2.38a9.017,9.017,0,0,1,1.64-1.96A9.829,9.829,0,0,1,172.3-20a6.125,6.125,0,0,1,2.74-.64,3.284,3.284,0,0,1,1.96.6,2.2,2.2,0,0,1,.84,1.92,2.033,2.033,0,0,1-.2.78,2.032,2.032,0,0,1-.64.8,1.846,1.846,0,0,1-1.16.34,1.8,1.8,0,0,1-1.4-.7,1.96,1.96,0,0,1-.4-1.54,4.042,4.042,0,0,0-2.06.52A7.581,7.581,0,0,0,170-16.38a11.112,11.112,0,0,0-1.64,2.3l.04,9.84q0,.8-.02,1.42a9.2,9.2,0,0,1-.14,1.3q.64-.04,1.26-.06t1.26-.06V0h-8.2ZM189.52.64a10.073,10.073,0,0,1-5.08-1.3,9.671,9.671,0,0,1-3.62-3.6,10.255,10.255,0,0,1-1.34-5.26,12.055,12.055,0,0,1,1.32-5.68,10.3,10.3,0,0,1,3.6-3.98,9.293,9.293,0,0,1,5.12-1.46,9.839,9.839,0,0,1,5.08,1.34,10.183,10.183,0,0,1,3.64,3.62,9.954,9.954,0,0,1,1.36,5.2,11.857,11.857,0,0,1-1.34,5.62,10.567,10.567,0,0,1-3.62,4.02A9.2,9.2,0,0,1,189.52.64Zm.32-1.6a4.627,4.627,0,0,0,3.36-1.2,6.8,6.8,0,0,0,1.78-3.12,14.854,14.854,0,0,0,.54-4.04,18.416,18.416,0,0,0-.34-3.54,12.071,12.071,0,0,0-1.06-3.16,6.263,6.263,0,0,0-1.86-2.26,4.491,4.491,0,0,0-2.74-.84,4.859,4.859,0,0,0-3.4,1.2,7.039,7.039,0,0,0-1.94,3.12,13.331,13.331,0,0,0-.62,4.12,15.962,15.962,0,0,0,.68,4.7,8.553,8.553,0,0,0,2.08,3.62A4.773,4.773,0,0,0,189.84-.96ZM211.56.64a8.156,8.156,0,0,1-4.4-1.22,8.46,8.46,0,0,1-3.1-3.5,11.848,11.848,0,0,1-1.14-5.36,12.318,12.318,0,0,1,1.32-5.8,9.994,9.994,0,0,1,3.66-3.96,9.907,9.907,0,0,1,5.3-1.44,10.315,10.315,0,0,1,2.62.34,8.46,8.46,0,0,1,2.06.78V-25q0-.64.02-1.22t.1-1.38l-1.42.08-1.42.08v-1.68a17.609,17.609,0,0,0,2.72-.16,5.68,5.68,0,0,0,1.46-.4,2.828,2.828,0,0,0,.78-.52h1.16V-4.24q0,.64-.04,1.28t-.12,1.44l1.42-.08,1.42-.08V0h-5.72q-.12-.6-.18-1.1t-.1-.98A8.218,8.218,0,0,1,215.2-.1,8.75,8.75,0,0,1,211.56.64ZM213-1.32a5.358,5.358,0,0,0,2.66-.76,7.466,7.466,0,0,0,2.22-1.88q-.04-.48-.04-1.02V-6.16l.04-11.52a6.635,6.635,0,0,0-2.1-1.06,8.144,8.144,0,0,0-2.34-.34,5.476,5.476,0,0,0-3.48,1.16,7.081,7.081,0,0,0-2.24,3.24,13.1,13.1,0,0,0-.68,4.88,14.035,14.035,0,0,0,.78,4.36,6.987,6.987,0,0,0,2,3.02A4.756,4.756,0,0,0,213-1.32ZM235.36.64a7.455,7.455,0,0,1-3.62-.8,4.982,4.982,0,0,1-2.2-2.72,14.835,14.835,0,0,1-.74-5.2V-15.2q0-.64.02-1.28a9.258,9.258,0,0,1,.14-1.32q-.68.04-1.38.06t-1.38.06v-1.64h1.24a6.716,6.716,0,0,0,2.5-.34,4.464,4.464,0,0,0,1.22-.74h1.16V-8.2a10.567,10.567,0,0,0,.98,5.14,3.463,3.463,0,0,0,3.34,1.66,5.5,5.5,0,0,0,2.9-.94,7.746,7.746,0,0,0,2.22-2.14V-14.76q0-.96.04-1.66a11.809,11.809,0,0,1,.16-1.38q-.72.04-1.44.06t-1.44.06v-1.64h1.24a6.716,6.716,0,0,0,2.5-.34,4.464,4.464,0,0,0,1.22-.74h1.16l-.04,15.12q0,.64-.04,1.8T245-1.52l1.44-.08,1.44-.08V0h-5.72q-.12-.68-.18-1.28t-.1-1.12a11.793,11.793,0,0,1-3,2.14A7.672,7.672,0,0,1,235.36.64Zm25.2,0a10.233,10.233,0,0,1-4.94-1.22,9.131,9.131,0,0,1-3.6-3.52,10.825,10.825,0,0,1-1.34-5.54,11.083,11.083,0,0,1,.76-4.04,11.857,11.857,0,0,1,2.14-3.54,10.163,10.163,0,0,1,3.3-2.5,9.684,9.684,0,0,1,4.24-.92,10.247,10.247,0,0,1,3.9.68,6.388,6.388,0,0,1,2.58,1.8,3.765,3.765,0,0,1,.92,2.44,2.377,2.377,0,0,1-.48,1.5,1.663,1.663,0,0,1-1.4.62,1.476,1.476,0,0,1-1.42-.62,2.267,2.267,0,0,1-.42-1.18,2.978,2.978,0,0,1,.12-.82,1.8,1.8,0,0,1,.48-.78,2.467,2.467,0,0,0-1.12-1.42,4.887,4.887,0,0,0-1.66-.6,9.167,9.167,0,0,0-1.42-.14,5.793,5.793,0,0,0-4.58,2.18q-1.86,2.18-1.86,6.34a12.37,12.37,0,0,0,.86,4.76,7.63,7.63,0,0,0,2.42,3.26,5.805,5.805,0,0,0,3.6,1.18,7.06,7.06,0,0,0,3.6-1,7.941,7.941,0,0,0,2.68-2.44l1.04.8a9.28,9.28,0,0,1-2.5,2.72,10.616,10.616,0,0,1-3,1.52A9.764,9.764,0,0,1,260.56.64Zm18.84,0a7.173,7.173,0,0,1-1.88-.26,4.239,4.239,0,0,1-1.78-1.02,5.159,5.159,0,0,1-1.3-2.22,12.686,12.686,0,0,1-.48-3.86l.08-11.6-3.08.04V-20a4.033,4.033,0,0,0,2.12-.78,7.416,7.416,0,0,0,1.94-2.02,7.887,7.887,0,0,0,1.18-2.8h1.36V-20h6.72v1.56l-6.72.08-.08,11.12a13.409,13.409,0,0,0,.3,3.06,3.725,3.725,0,0,0,.98,1.9,2.464,2.464,0,0,0,1.76.64,3.771,3.771,0,0,0,2.1-.64,6.253,6.253,0,0,0,1.74-1.76l1.08.88a10.662,10.662,0,0,1-1.74,2.08A7.264,7.264,0,0,1,282.04.06a5.285,5.285,0,0,1-1.48.48A8.165,8.165,0,0,1,279.4.64Zm41.04-19.72a8.986,8.986,0,0,0-2.62-5.84,8,8,0,0,0-5.7-2.08,9.019,9.019,0,0,0-3.98.9,9.743,9.743,0,0,0-3.26,2.58,12.509,12.509,0,0,0-2.2,4.04,16.517,16.517,0,0,0-.8,5.32,14.658,14.658,0,0,0,1.44,6.64,11.21,11.21,0,0,0,3.88,4.48,9.64,9.64,0,0,0,5.4,1.6,11.962,11.962,0,0,0,5.12-1.18,10.391,10.391,0,0,0,4.12-3.42l1.04.84a14.077,14.077,0,0,1-3.72,3.64A12.765,12.765,0,0,1,315.18.18a16.108,16.108,0,0,1-3.62.46,13.723,13.723,0,0,1-5.5-1.08,12.829,12.829,0,0,1-4.32-3.02,13.577,13.577,0,0,1-2.8-4.52,15.585,15.585,0,0,1-.98-5.58,17.956,17.956,0,0,1,.86-5.52,15.113,15.113,0,0,1,2.58-4.84,12.434,12.434,0,0,1,4.34-3.44,13.74,13.74,0,0,1,6.1-1.28,14.681,14.681,0,0,1,4.24.6,14.1,14.1,0,0,1,3.84,1.84l-.2-2.16h2.16v9.28ZM335.76.64a10.073,10.073,0,0,1-5.08-1.3,9.671,9.671,0,0,1-3.62-3.6,10.255,10.255,0,0,1-1.34-5.26,12.055,12.055,0,0,1,1.32-5.68,10.3,10.3,0,0,1,3.6-3.98,9.292,9.292,0,0,1,5.12-1.46,9.839,9.839,0,0,1,5.08,1.34,10.183,10.183,0,0,1,3.64,3.62,9.954,9.954,0,0,1,1.36,5.2,11.857,11.857,0,0,1-1.34,5.62,10.568,10.568,0,0,1-3.62,4.02A9.2,9.2,0,0,1,335.76.64Zm.32-1.6a4.627,4.627,0,0,0,3.36-1.2,6.8,6.8,0,0,0,1.78-3.12,14.853,14.853,0,0,0,.54-4.04,18.417,18.417,0,0,0-.34-3.54,12.07,12.07,0,0,0-1.06-3.16,6.264,6.264,0,0,0-1.86-2.26,4.491,4.491,0,0,0-2.74-.84,4.859,4.859,0,0,0-3.4,1.2,7.039,7.039,0,0,0-1.94,3.12,13.331,13.331,0,0,0-.62,4.12,15.961,15.961,0,0,0,.68,4.7,8.553,8.553,0,0,0,2.08,3.62A4.773,4.773,0,0,0,336.08-.96ZM359.16.64a10.073,10.073,0,0,1-5.08-1.3,9.671,9.671,0,0,1-3.62-3.6,10.255,10.255,0,0,1-1.34-5.26,12.055,12.055,0,0,1,1.32-5.68,10.3,10.3,0,0,1,3.6-3.98,9.292,9.292,0,0,1,5.12-1.46,9.839,9.839,0,0,1,5.08,1.34,10.183,10.183,0,0,1,3.64,3.62,9.954,9.954,0,0,1,1.36,5.2,11.857,11.857,0,0,1-1.34,5.62,10.568,10.568,0,0,1-3.62,4.02A9.2,9.2,0,0,1,359.16.64Zm.32-1.6a4.627,4.627,0,0,0,3.36-1.2,6.8,6.8,0,0,0,1.78-3.12,14.853,14.853,0,0,0,.54-4.04,18.417,18.417,0,0,0-.34-3.54,12.07,12.07,0,0,0-1.06-3.16,6.264,6.264,0,0,0-1.86-2.26,4.491,4.491,0,0,0-2.74-.84,4.859,4.859,0,0,0-3.4,1.2,7.039,7.039,0,0,0-1.94,3.12,13.331,13.331,0,0,0-.62,4.12,15.961,15.961,0,0,0,.68,4.7,8.553,8.553,0,0,0,2.08,3.62A4.773,4.773,0,0,0,359.48-.96Zm13.16-.24a2.059,2.059,0,0,0,1.72-.62,3.134,3.134,0,0,0,.56-1.72q.08-1.1.08-2.54V-15.2q0-.64.02-1.28a9.263,9.263,0,0,1,.14-1.32q-.72.04-1.42.06t-1.42.06v-1.64h1.24a5.749,5.749,0,0,0,2.38-.34,5.1,5.1,0,0,0,1.1-.74h1.16q.08.64.12,1.58t.08,2.38a9.017,9.017,0,0,1,1.64-1.96,9.829,9.829,0,0,1,2.34-1.6,6.125,6.125,0,0,1,2.74-.64,3.285,3.285,0,0,1,1.96.6,2.2,2.2,0,0,1,.84,1.92,2.033,2.033,0,0,1-.2.78,2.031,2.031,0,0,1-.64.8,1.846,1.846,0,0,1-1.16.34,1.8,1.8,0,0,1-1.4-.7,1.96,1.96,0,0,1-.4-1.54,4.042,4.042,0,0,0-2.06.52,7.581,7.581,0,0,0-1.98,1.54,11.112,11.112,0,0,0-1.64,2.3l.04,9.84q0,.8-.02,1.42a9.2,9.2,0,0,1-.14,1.3q.64-.04,1.26-.06t1.26-.06V0h-8.2ZM398.24.64a8.156,8.156,0,0,1-4.4-1.22,8.46,8.46,0,0,1-3.1-3.5,11.848,11.848,0,0,1-1.14-5.36,12.318,12.318,0,0,1,1.32-5.8,9.994,9.994,0,0,1,3.66-3.96,9.907,9.907,0,0,1,5.3-1.44,10.315,10.315,0,0,1,2.62.34,8.459,8.459,0,0,1,2.06.78V-25q0-.64.02-1.22t.1-1.38l-1.42.08-1.42.08v-1.68a17.608,17.608,0,0,0,2.72-.16,5.68,5.68,0,0,0,1.46-.4,2.828,2.828,0,0,0,.78-.52h1.16V-4.24q0,.64-.04,1.28t-.12,1.44l1.42-.08,1.42-.08V0h-5.72q-.12-.6-.18-1.1t-.1-.98A8.218,8.218,0,0,1,401.88-.1,8.75,8.75,0,0,1,398.24.64Zm1.44-1.96a5.358,5.358,0,0,0,2.66-.76,7.465,7.465,0,0,0,2.22-1.88q-.04-.48-.04-1.02V-6.16l.04-11.52a6.635,6.635,0,0,0-2.1-1.06,8.144,8.144,0,0,0-2.34-.34,5.476,5.476,0,0,0-3.48,1.16,7.081,7.081,0,0,0-2.24,3.24,13.1,13.1,0,0,0-.68,4.88,14.035,14.035,0,0,0,.78,4.36,6.987,6.987,0,0,0,2,3.02A4.756,4.756,0,0,0,399.68-1.32Zm13.92.12a2.059,2.059,0,0,0,1.72-.62,3.134,3.134,0,0,0,.56-1.72q.08-1.1.08-2.54V-15.2q0-.64.04-1.22t.12-1.38l-1.42.08-1.42.08v-1.68a17.608,17.608,0,0,0,2.72-.16,5.68,5.68,0,0,0,1.46-.4,2.828,2.828,0,0,0,.78-.52h1.16V-4.24q0,.8-.02,1.42a9.2,9.2,0,0,1-.14,1.3q.64-.04,1.26-.06t1.26-.06V0H413.6Zm3.84-23.16a1.977,1.977,0,0,1-1.48-.68,2.358,2.358,0,0,1-.64-1.68,2.387,2.387,0,0,1,.66-1.7,2.014,2.014,0,0,1,1.5-.7,1.974,1.974,0,0,1,1.54.7,2.474,2.474,0,0,1,.62,1.7,2.319,2.319,0,0,1-.66,1.68A2.081,2.081,0,0,1,417.44-24.36ZM424.84,0V-1.2a2.059,2.059,0,0,0,1.72-.62,3.134,3.134,0,0,0,.56-1.72q.08-1.1.08-2.54l.04-9.12q0-.64.02-1.28a9.263,9.263,0,0,1,.14-1.32l-1.42.08-1.42.08v-1.68a16.4,16.4,0,0,0,2.66-.16,4.618,4.618,0,0,0,1.34-.4,3.132,3.132,0,0,0,.72-.52h1.16q.04.28.06.64t.06.8q.04.44.04,1a12,12,0,0,1,1.94-1.36,11.119,11.119,0,0,1,2.24-.96,7.986,7.986,0,0,1,2.34-.36,5.88,5.88,0,0,1,5.08,2.18q1.6,2.18,1.6,6.78v7.44q0,.8-.02,1.42a9.2,9.2,0,0,1-.14,1.3q.64-.04,1.26-.06t1.26-.06V0H438V-1.2a2.058,2.058,0,0,0,1.72-.62,3.134,3.134,0,0,0,.56-1.72q.08-1.1.08-2.54v-5.6a10.158,10.158,0,0,0-1.14-5.2,3.7,3.7,0,0,0-3.46-1.72,6.427,6.427,0,0,0-2.82.76,7.306,7.306,0,0,0-2.3,1.84,5.846,5.846,0,0,1,.04.72v.84l-.04,10.2q0,.8-.02,1.42a9.2,9.2,0,0,1-.14,1.3q.64-.04,1.26-.06T433-1.64V0Zm36.44,0q-.12-.68-.16-1.2T461-2.28a11.119,11.119,0,0,1-2.94,2.14,7.448,7.448,0,0,1-3.34.78A6.434,6.434,0,0,1,450.2-.74a4.443,4.443,0,0,1-1.48-3.38,4.749,4.749,0,0,1,1.14-3.18,8.688,8.688,0,0,1,2.96-2.2,16.806,16.806,0,0,1,3.96-1.28,19.454,19.454,0,0,1,4.14-.38v-2.48a13.882,13.882,0,0,0-.24-2.64,3.836,3.836,0,0,0-1.04-2.04,3.629,3.629,0,0,0-2.56-.84,5.91,5.91,0,0,0-2.38.44,3.21,3.21,0,0,0-1.78,1.64,1.534,1.534,0,0,1,.42.74,3.382,3.382,0,0,1,.1.78,2.1,2.1,0,0,1-.4,1.1,1.461,1.461,0,0,1-1.4.58,1.508,1.508,0,0,1-1.28-.58,2.218,2.218,0,0,1-.44-1.38,3.463,3.463,0,0,1,1.02-2.44A7.046,7.046,0,0,1,453.76-20a12.132,12.132,0,0,1,4.08-.64,6.345,6.345,0,0,1,4.96,1.78q1.6,1.78,1.56,5.62v2.98q0,1.5-.02,3t-.02,3.02q0,.64-.04,1.28t-.12,1.44l1.42-.08L467-1.68V0Zm-.36-9.8a17.179,17.179,0,0,0-2.86.34,11.756,11.756,0,0,0-2.76.9,5.671,5.671,0,0,0-2.04,1.58,3.532,3.532,0,0,0-.74,2.38,2.925,2.925,0,0,0,.98,2.22,3.263,3.263,0,0,0,2.14.74,6.235,6.235,0,0,0,2.86-.62A10.666,10.666,0,0,0,460.92-4q-.04-.44-.04-.96V-6.04q0-.2.02-1.28T460.92-9.8ZM477,.64a7.174,7.174,0,0,1-1.88-.26,4.239,4.239,0,0,1-1.78-1.02,5.159,5.159,0,0,1-1.3-2.22,12.686,12.686,0,0,1-.48-3.86l.08-11.6-3.08.04V-20a4.033,4.033,0,0,0,2.12-.78,7.416,7.416,0,0,0,1.94-2.02,7.887,7.887,0,0,0,1.18-2.8h1.36V-20h6.72v1.56l-6.72.08-.08,11.12a13.409,13.409,0,0,0,.3,3.06,3.725,3.725,0,0,0,.98,1.9,2.464,2.464,0,0,0,1.76.64,3.771,3.771,0,0,0,2.1-.64,6.253,6.253,0,0,0,1.74-1.76l1.08.88a10.662,10.662,0,0,1-1.74,2.08A7.264,7.264,0,0,1,479.64.06a5.285,5.285,0,0,1-1.48.48A8.165,8.165,0,0,1,477,.64Zm17.88,0a10.073,10.073,0,0,1-5.08-1.3,9.671,9.671,0,0,1-3.62-3.6,10.255,10.255,0,0,1-1.34-5.26,12.055,12.055,0,0,1,1.32-5.68,10.3,10.3,0,0,1,3.6-3.98,9.292,9.292,0,0,1,5.12-1.46,9.839,9.839,0,0,1,5.08,1.34,10.183,10.183,0,0,1,3.64,3.62,9.954,9.954,0,0,1,1.36,5.2,11.857,11.857,0,0,1-1.34,5.62A10.568,10.568,0,0,1,500-.84,9.2,9.2,0,0,1,494.88.64Zm.32-1.6a4.627,4.627,0,0,0,3.36-1.2,6.8,6.8,0,0,0,1.78-3.12,14.855,14.855,0,0,0,.54-4.04,18.417,18.417,0,0,0-.34-3.54,12.07,12.07,0,0,0-1.06-3.16,6.264,6.264,0,0,0-1.86-2.26,4.491,4.491,0,0,0-2.74-.84,4.859,4.859,0,0,0-3.4,1.2,7.039,7.039,0,0,0-1.94,3.12,13.331,13.331,0,0,0-.62,4.12,15.961,15.961,0,0,0,.68,4.7,8.553,8.553,0,0,0,2.08,3.62A4.773,4.773,0,0,0,495.2-.96Zm13.16-.24a2.059,2.059,0,0,0,1.72-.62,3.134,3.134,0,0,0,.56-1.72q.08-1.1.08-2.54V-15.2q0-.64.02-1.28a9.263,9.263,0,0,1,.14-1.32q-.72.04-1.42.06t-1.42.06v-1.64h1.24a5.749,5.749,0,0,0,2.38-.34,5.1,5.1,0,0,0,1.1-.74h1.16q.08.64.12,1.58t.08,2.38a9.019,9.019,0,0,1,1.64-1.96A9.829,9.829,0,0,1,518.1-20a6.125,6.125,0,0,1,2.74-.64,3.284,3.284,0,0,1,1.96.6,2.2,2.2,0,0,1,.84,1.92,2.032,2.032,0,0,1-.2.78,2.032,2.032,0,0,1-.64.8,1.846,1.846,0,0,1-1.16.34,1.8,1.8,0,0,1-1.4-.7,1.96,1.96,0,0,1-.4-1.54,4.042,4.042,0,0,0-2.06.52,7.582,7.582,0,0,0-1.98,1.54,11.111,11.111,0,0,0-1.64,2.3l.04,9.84q0,.8-.02,1.42a9.19,9.19,0,0,1-.14,1.3q.64-.04,1.26-.06t1.26-.06V0h-8.2Z" transform="translate(423.75 4179)"/>
    <path id="Path_4" data-name="Path 4" d="M2.122,0H.46L5.267-13.091H6.9L11.71,0H10.048L6.136-11.02h-.1Zm.614-5.114h6.7v1.406h-6.7ZM15.916,0V-13.091h4.423a5.1,5.1,0,0,1,2.522.553,3.5,3.5,0,0,1,1.454,1.493,4.6,4.6,0,0,1,.473,2.1,4.662,4.662,0,0,1-.47,2.1A3.517,3.517,0,0,1,22.87-5.341a5,5,0,0,1-2.506.559h-3.17V-6.187h3.119a3.41,3.41,0,0,0,1.694-.364,2.188,2.188,0,0,0,.93-.988,3.3,3.3,0,0,0,.291-1.409,3.273,3.273,0,0,0-.291-1.406A2.132,2.132,0,0,0,22-11.33a3.556,3.556,0,0,0-1.713-.355H17.5V0ZM29.5,0V-13.091h4.423a5.1,5.1,0,0,1,2.522.553A3.5,3.5,0,0,1,37.9-11.045a4.6,4.6,0,0,1,.473,2.1,4.662,4.662,0,0,1-.47,2.1,3.517,3.517,0,0,1-1.448,1.505,5,5,0,0,1-2.506.559h-3.17V-6.187H33.9A3.41,3.41,0,0,0,35.6-6.552a2.188,2.188,0,0,0,.93-.988,3.3,3.3,0,0,0,.291-1.409,3.273,3.273,0,0,0-.291-1.406,2.132,2.132,0,0,0-.936-.975,3.556,3.556,0,0,0-1.713-.355H31.09V0ZM43.094,0V-13.091h1.585V-1.406h6.085V0ZM53.64-13.091h1.815L59.086-6.98h.153l3.631-6.111h1.815l-4.73,7.7V0H58.37V-5.395Zm32.854,0V0H84.96L77.826-10.278H77.7V0H76.113V-13.091h1.534l7.159,10.3h.128v-10.3ZM102.87-6.545a7.976,7.976,0,0,1-.748,3.58A5.614,5.614,0,0,1,100.07-.639a5.486,5.486,0,0,1-2.979.818,5.486,5.486,0,0,1-2.979-.818,5.614,5.614,0,0,1-2.052-2.327,7.976,7.976,0,0,1-.748-3.58,7.976,7.976,0,0,1,.748-3.58,5.614,5.614,0,0,1,2.052-2.327,5.486,5.486,0,0,1,2.979-.818,5.486,5.486,0,0,1,2.979.818,5.614,5.614,0,0,1,2.052,2.327A7.976,7.976,0,0,1,102.87-6.545Zm-1.534,0a6.557,6.557,0,0,0-.566-2.87,4.15,4.15,0,0,0-1.528-1.771,3.977,3.977,0,0,0-2.151-.6,3.977,3.977,0,0,0-2.151.6,4.15,4.15,0,0,0-1.528,1.771,6.557,6.557,0,0,0-.566,2.87,6.557,6.557,0,0,0,.566,2.87A4.15,4.15,0,0,0,94.941-1.9a3.977,3.977,0,0,0,2.151.6,3.977,3.977,0,0,0,2.151-.6,4.15,4.15,0,0,0,1.528-1.771A6.557,6.557,0,0,0,101.336-6.545ZM110.067,0l-3.58-13.091H108.1l2.736,10.662h.128l2.787-10.662h1.79l2.787,10.662h.128l2.736-10.662H122.8L119.22,0h-1.636l-2.889-10.432h-.1L111.7,0Z" transform="translate(1463.75 4015)"/>
    <path id="Path_6" data-name="Path 6" d="M2.122,0H.46L5.267-13.091H6.9L11.71,0H10.048L6.136-11.02h-.1Zm.614-5.114h6.7v1.406h-6.7ZM15.916,0V-13.091h4.423a5.1,5.1,0,0,1,2.522.553,3.5,3.5,0,0,1,1.454,1.493,4.6,4.6,0,0,1,.473,2.1,4.662,4.662,0,0,1-.47,2.1A3.517,3.517,0,0,1,22.87-5.341a5,5,0,0,1-2.506.559h-3.17V-6.187h3.119a3.41,3.41,0,0,0,1.694-.364,2.188,2.188,0,0,0,.93-.988,3.3,3.3,0,0,0,.291-1.409,3.273,3.273,0,0,0-.291-1.406A2.132,2.132,0,0,0,22-11.33a3.556,3.556,0,0,0-1.713-.355H17.5V0ZM29.5,0V-13.091h4.423a5.1,5.1,0,0,1,2.522.553A3.5,3.5,0,0,1,37.9-11.045a4.6,4.6,0,0,1,.473,2.1,4.662,4.662,0,0,1-.47,2.1,3.517,3.517,0,0,1-1.448,1.505,5,5,0,0,1-2.506.559h-3.17V-6.187H33.9A3.41,3.41,0,0,0,35.6-6.552a2.188,2.188,0,0,0,.93-.988,3.3,3.3,0,0,0,.291-1.409,3.273,3.273,0,0,0-.291-1.406,2.132,2.132,0,0,0-.936-.975,3.556,3.556,0,0,0-1.713-.355H31.09V0ZM43.094,0V-13.091h1.585V-1.406h6.085V0ZM53.64-13.091h1.815L59.086-6.98h.153l3.631-6.111h1.815l-4.73,7.7V0H58.37V-5.395Zm32.854,0V0H84.96L77.826-10.278H77.7V0H76.113V-13.091h1.534l7.159,10.3h.128v-10.3ZM102.87-6.545a7.976,7.976,0,0,1-.748,3.58A5.614,5.614,0,0,1,100.07-.639a5.486,5.486,0,0,1-2.979.818,5.486,5.486,0,0,1-2.979-.818,5.614,5.614,0,0,1-2.052-2.327,7.976,7.976,0,0,1-.748-3.58,7.976,7.976,0,0,1,.748-3.58,5.614,5.614,0,0,1,2.052-2.327,5.486,5.486,0,0,1,2.979-.818,5.486,5.486,0,0,1,2.979.818,5.614,5.614,0,0,1,2.052,2.327A7.976,7.976,0,0,1,102.87-6.545Zm-1.534,0a6.557,6.557,0,0,0-.566-2.87,4.15,4.15,0,0,0-1.528-1.771,3.977,3.977,0,0,0-2.151-.6,3.977,3.977,0,0,0-2.151.6,4.15,4.15,0,0,0-1.528,1.771,6.557,6.557,0,0,0-.566,2.87,6.557,6.557,0,0,0,.566,2.87A4.15,4.15,0,0,0,94.941-1.9a3.977,3.977,0,0,0,2.151.6,3.977,3.977,0,0,0,2.151-.6,4.15,4.15,0,0,0,1.528-1.771A6.557,6.557,0,0,0,101.336-6.545ZM110.067,0l-3.58-13.091H108.1l2.736,10.662h.128l2.787-10.662h1.79l2.787,10.662h.128l2.736-10.662H122.8L119.22,0h-1.636l-2.889-10.432h-.1L111.7,0Z" transform="translate(1463.75 4376)"/>
    <path id="Path_5" data-name="Path 5" d="M2.122,0H.46L5.267-13.091H6.9L11.71,0H10.048L6.136-11.02h-.1Zm.614-5.114h6.7v1.406h-6.7ZM15.916,0V-13.091h4.423a5.1,5.1,0,0,1,2.522.553,3.5,3.5,0,0,1,1.454,1.493,4.6,4.6,0,0,1,.473,2.1,4.662,4.662,0,0,1-.47,2.1A3.517,3.517,0,0,1,22.87-5.341a5,5,0,0,1-2.506.559h-3.17V-6.187h3.119a3.41,3.41,0,0,0,1.694-.364,2.188,2.188,0,0,0,.93-.988,3.3,3.3,0,0,0,.291-1.409,3.273,3.273,0,0,0-.291-1.406A2.132,2.132,0,0,0,22-11.33a3.556,3.556,0,0,0-1.713-.355H17.5V0ZM29.5,0V-13.091h4.423a5.1,5.1,0,0,1,2.522.553A3.5,3.5,0,0,1,37.9-11.045a4.6,4.6,0,0,1,.473,2.1,4.662,4.662,0,0,1-.47,2.1,3.517,3.517,0,0,1-1.448,1.505,5,5,0,0,1-2.506.559h-3.17V-6.187H33.9A3.41,3.41,0,0,0,35.6-6.552a2.188,2.188,0,0,0,.93-.988,3.3,3.3,0,0,0,.291-1.409,3.273,3.273,0,0,0-.291-1.406,2.132,2.132,0,0,0-.936-.975,3.556,3.556,0,0,0-1.713-.355H31.09V0ZM43.094,0V-13.091h1.585V-1.406h6.085V0ZM53.64-13.091h1.815L59.086-6.98h.153l3.631-6.111h1.815l-4.73,7.7V0H58.37V-5.395Zm32.854,0V0H84.96L77.826-10.278H77.7V0H76.113V-13.091h1.534l7.159,10.3h.128v-10.3ZM102.87-6.545a7.976,7.976,0,0,1-.748,3.58A5.614,5.614,0,0,1,100.07-.639a5.486,5.486,0,0,1-2.979.818,5.486,5.486,0,0,1-2.979-.818,5.614,5.614,0,0,1-2.052-2.327,7.976,7.976,0,0,1-.748-3.58,7.976,7.976,0,0,1,.748-3.58,5.614,5.614,0,0,1,2.052-2.327,5.486,5.486,0,0,1,2.979-.818,5.486,5.486,0,0,1,2.979.818,5.614,5.614,0,0,1,2.052,2.327A7.976,7.976,0,0,1,102.87-6.545Zm-1.534,0a6.557,6.557,0,0,0-.566-2.87,4.15,4.15,0,0,0-1.528-1.771,3.977,3.977,0,0,0-2.151-.6,3.977,3.977,0,0,0-2.151.6,4.15,4.15,0,0,0-1.528,1.771,6.557,6.557,0,0,0-.566,2.87,6.557,6.557,0,0,0,.566,2.87A4.15,4.15,0,0,0,94.941-1.9a3.977,3.977,0,0,0,2.151.6,3.977,3.977,0,0,0,2.151-.6,4.15,4.15,0,0,0,1.528-1.771A6.557,6.557,0,0,0,101.336-6.545ZM110.067,0l-3.58-13.091H108.1l2.736,10.662h.128l2.787-10.662h1.79l2.787,10.662h.128l2.736-10.662H122.8L119.22,0h-1.636l-2.889-10.432h-.1L111.7,0Z" transform="translate(1463.75 4181)"/>
    <line id="Line_1" data-name="Line 1" x2="1216" transform="translate(414.25 4085.5)" fill="none" stroke="#c4c4c4" stroke-width="1"/>
    <line id="Line_2" data-name="Line 2" x2="1216" transform="translate(414.25 4267.5)" fill="none" stroke="#c4c4c4" stroke-width="1"/>
    <g id="Rectangle_2" data-name="Rectangle 2" transform="translate(1419.75 3973)" fill="none" stroke="#0180c1" stroke-width="1">
      <rect width="211" height="69" stroke="none"/>
      <rect x="0.5" y="0.5" width="210" height="68" fill="none"/>
    </g>
    <g id="Rectangle_4" data-name="Rectangle 4" transform="translate(1419.75 4334)" fill="none" stroke="#0180c1" stroke-width="1">
      <rect width="211" height="69" stroke="none"/>
      <rect x="0.5" y="0.5" width="210" height="68" fill="none"/>
    </g>
    <g id="Rectangle_3" data-name="Rectangle 3" transform="translate(1419.75 4139)" fill="none" stroke="#0180c1" stroke-width="1">
      <rect width="211" height="69" stroke="none"/>
      <rect x="0.5" y="0.5" width="210" height="68" fill="none"/>
    </g>
  </g>
</svg>
