<?xml version="1.0" encoding="utf-8"?>
<!-- Generator: Adobe Illustrator 27.8.1, SVG Export Plug-In . SVG Version: 6.00 Build 0)  -->
<svg version="1.1" id="Layer_1" xmlns="http://www.w3.org/2000/svg" xmlns:xlink="http://www.w3.org/1999/xlink" x="0px" y="0px"
	 viewBox="0 0 120 120" style="enable-background:new 0 0 120 120;" xml:space="preserve">
<style type="text/css">
	.st0{fill:#FFFFFF;}
</style>
<path class="st0" d="M95.8,55c-2.5,0.1-4.4,2.1-4.4,4.6c0,0,0,0,0,0c0,0.7,0.2,1.5,0.6,2.1L69.7,74.9l-0.9-26.3
	c2.9-0.4,5-3.2,4.5-6.1c-0.4-2.9-3.2-5-6.1-4.5c-2.9,0.4-5,3.2-4.5,6.1c0.1,1,0.6,1.9,1.2,2.7l-18.5,21l-9.6-19.8
	c2.7-0.9,4-3.9,3.1-6.5s-3.9-4-6.5-3.1c-2.7,0.9-4,3.9-3.1,6.5c0.5,1.4,1.6,2.5,3,3.1l0.9,33c0,0,30.5-3,39.8,12.7l21.6-29.9
	c0.5,0.2,0.9,0.2,1.4,0.2c2.5,0,4.5-2,4.4-4.5c0-2.5-2-4.5-4.5-4.4C95.9,55,95.8,55,95.8,55 M116.3,60c0,31.1-25.2,56.3-56.3,56.3
	S3.7,91.1,3.7,60S28.9,3.7,60,3.7S116.3,28.9,116.3,60z"/>
</svg>
